
<svg version="1.0" xmlns="http://www.w3.org/2000/svg"
 width="2rem" height="2rem" viewBox="0 0 500.000000 650.000000"
 preserveAspectRatio="xMidYMid meet">
<g transform="translate(0.000000,650.000000) scale(0.100000,-0.100000)"
fill="#000000" stroke="none">
<path d="M2115 6105 c-565 -59 -977 -207 -1119 -403 -67 -91 -83 -210 -41
-293 120 -236 541 -404 1165 -464 172 -17 566 -19 747 -4 559 45 1013 202
1158 398 50 70 65 111 65 186 0 91 -32 156 -115 234 -251 234 -800 364 -1525
360 -118 -1 -269 -7 -335 -14z m904 -175 c395 -53 693 -153 829 -276 109 -97
110 -157 4 -256 -150 -141 -556 -260 -1011 -299 -185 -15 -640 -7 -811 16
-433 57 -743 165 -882 307 -81 83 -74 137 31 230 160 142 456 234 946 293 180
21 688 13 894 -15z"/>
<path d="M2215 4795 c-402 -65 -670 -259 -771 -560 -25 -76 -26 -87 -21 -220
6 -167 35 -292 98 -418 35 -70 58 -99 161 -200 77 -76 118 -123 114 -133 -3
-8 -9 -14 -13 -14 -4 0 -69 34 -143 75 -274 152 -439 203 -625 192 -294 -17
-539 -251 -648 -617 -46 -155 -52 -197 -52 -395 0 -212 9 -275 60 -435 122
-375 373 -646 675 -727 99 -27 278 -22 401 10 184 48 329 131 480 274 103 99
176 193 261 335 63 108 103 158 125 158 7 0 20 -11 29 -24 42 -66 -4 -545 -82
-836 -65 -240 -172 -419 -294 -487 -142 -81 -152 -100 -67 -138 137 -63 445
-93 776 -75 308 15 381 31 381 83 0 30 -12 45 -82 101 -76 61 -119 107 -172
186 -109 161 -204 401 -251 633 -42 208 -50 428 -18 482 11 19 13 19 46 -13
18 -18 55 -70 81 -115 119 -204 245 -352 398 -467 367 -277 738 -329 1032
-146 246 153 431 440 501 775 37 179 37 484 0 677 -63 333 -242 556 -495 620
-51 13 -94 15 -200 11 -231 -9 -367 -61 -534 -202 -70 -61 -91 -73 -102 -64
-8 6 -14 16 -14 21 0 6 40 76 90 157 187 307 250 498 250 760 0 145 -19 234
-70 337 -32 66 -55 96 -120 157 -124 117 -284 187 -530 232 -132 24 -529 30
-655 10z"/>
</g>
</svg>
