
<svg width="2rem" height="2rem" viewBox="0 0 287.000000 317.000000"
 preserveAspectRatio="xMidYMid meet">

<g transform="translate(0.000000,317.000000) scale(0.100000,-0.100000)"
fill="#000000" stroke="none">
<path d="M1257 2928 c-196 -292 -335 -484 -430 -596 -93 -110 -380 -397 -587
-586 -91 -83 -166 -155 -168 -161 -1 -5 53 -60 120 -120 68 -60 238 -225 379
-365 288 -287 343 -356 668 -833 101 -147 187 -267 191 -267 5 0 48 57 96 128
386 563 471 676 671 882 88 91 260 257 382 369 l222 205 -23 22 c-13 11 -97
89 -188 171 -245 223 -541 530 -646 668 -112 148 -245 338 -392 558 -62 92
-116 167 -122 167 -5 0 -83 -109 -173 -242z"/>
</g>
</svg>
