
<svg width="2rem" height="2rem" viewBox="0 0 280.000000 330.000000"
 preserveAspectRatio="xMidYMid meet">

<g transform="translate(0.000000,330.000000) scale(0.100000,-0.100000)"
fill="#000000" stroke="none">
<path d="M610 3184 c-215 -57 -385 -219 -479 -454 -42 -107 -54 -190 -49 -343
4 -113 9 -143 33 -207 87 -235 184 -373 600 -849 257 -296 341 -400 434 -536
165 -242 256 -466 276 -683 4 -41 11 -70 15 -65 4 4 12 51 18 104 19 174 112
403 240 594 87 129 198 265 448 550 284 323 372 430 446 539 157 235 219 429
205 644 -9 126 -30 209 -82 317 -120 247 -324 389 -575 402 -200 10 -337 -44
-486 -192 -81 -80 -97 -102 -142 -195 -28 -58 -55 -125 -62 -149 l-11 -43 -28
79 c-87 251 -270 430 -496 488 -75 19 -232 18 -305 -1z"/>
</g>
</svg>
