
<svg width="2rem" height="2rem" viewBox="0 0 271.000000 316.000000"
 preserveAspectRatio="xMidYMid meet">
<g transform="translate(0.000000,316.000000) scale(0.100000,-0.100000)"
fill="#000000" stroke="none">
<path d="M1355 3103 c-18 -153 -73 -315 -156 -457 -101 -171 -212 -304 -534
-640 -456 -475 -553 -602 -629 -815 -27 -77 -30 -98 -30 -206 -1 -98 4 -134
23 -195 75 -240 230 -403 456 -477 68 -22 98 -26 205 -27 131 -1 203 15 304
66 100 51 211 149 268 237 36 55 29 27 -17 -75 -87 -190 -228 -340 -400 -426
-58 -29 -162 -65 -226 -77 -26 -5 267 -9 741 -9 785 -1 785 -1 714 18 -272 71
-466 233 -589 493 -54 113 -57 129 -11 62 87 -129 260 -245 422 -281 92 -20
237 -15 324 11 181 55 340 188 425 356 59 117 67 159 63 352 -3 169 -4 173
-37 250 -82 191 -209 347 -659 812 -245 251 -361 386 -448 520 -104 161 -164
314 -185 470 -6 50 -13 92 -14 93 -2 2 -6 -23 -10 -55z"/>
</g>
</svg>
