<svg xmlns="http://www.w3.org/2000/svg" width="175.144" height="112.2" viewBox="0 0 175.144 112.2">
  <g id="Group_1" data-name="Group 1" transform="translate(-2447.1 544.2)">
    <path id="Path_72" data-name="Path 72" d="M327.969,307.583a19.883,19.883,0,0,0,4.181-11.741c0-6.529-3.723-11.569-11-14.949A45.3,45.3,0,0,0,301.68,277a65.46,65.46,0,0,0-10.71.916,35.37,35.37,0,0,0-10.309,2.921q-2.405,1.289-2.406,3.093c0,1.088.63,1.317,1.2,1.317a2.225,2.225,0,0,0,1.088-.286,44.25,44.25,0,0,1,22.222-5.5,39,39,0,0,1,16.667,3.322C325.62,285.7,328.77,290,328.77,295.5a17.622,17.622,0,0,1-3.608,10.309,32.514,32.514,0,0,1-7.847,7.732c-4.811-6.3-13.918-9.622-27.033-9.966a136.122,136.122,0,0,1,12.829-21.134c0-.057.172-.573.172-.573,0-.229-.057-.859-1.26-.859a4.55,4.55,0,0,0-3.952,1.718,64.8,64.8,0,0,0-3.551,5.956c-2.692,4.926-5.1,9.908-7.217,14.891a18.98,18.98,0,0,0-9.393,2.978c-3.207,2.234-4.811,4.983-4.811,8.362,0,2.864,2,5.212,5.956,6.873a26.793,26.793,0,0,0,9.45,2.062l3.036.115a49.292,49.292,0,0,0,25.6-6.644c.573.8.859,1.088,1.146,1.088.4,0,.974-.172.974-1.26a2.417,2.417,0,0,0-.286-.916,34.158,34.158,0,0,0,8.992-8.648Zm119.875-2.692c-.115,0-.344,0-3.036,3.265-1.775,2.062-3.036,3.093-3.952,3.093-1.2,0-1.833-1.489-1.833-4.525,0-3.379.516-5.957,1.546-7.617a1.419,1.419,0,0,1,.859-.458c.172-.115.286-.115.286-.286l-.229-.573a3.883,3.883,0,0,0-3.551-1.718,5.291,5.291,0,0,0-2.291.458c-2.062.745-4.3,2.749-6.415,6.014-2.234,3.322-3.322,6.014-3.322,8.3q0,2.405,2.234,2.406c2.234,0,4.7-2.348,7.56-7.217-.057.516-.057,1.2-.057,1.2,0,3.895,1.375,5.842,4.181,5.842a5.613,5.613,0,0,0,2.463-.63q2.577-1.289,5.5-6.014a2.432,2.432,0,0,0,.458-1.031c0-.4-.229-.515-.4-.515Zm-15.006,3.093q-2.234,2.921-3.608,2.921c-.458,0-.745-.4-.745-1.2,0-2,1.375-4.7,4.009-7.789,1.89-2.234,3.608-3.322,5.269-3.322a1.248,1.248,0,0,0,.344.057A37.172,37.172,0,0,1,432.837,307.984ZM423.559,294.3c-1.718,0-3.551,1.2-5.727,3.666a29.434,29.434,0,0,0-3.265,4.525c.63-2.062,1.375-3.322,3.551-7.045l.458-.745c2.864-4.983,5.842-7.274,9.565-7.446,5.556-.4,8.878-1.546,10.367-3.494a9.442,9.442,0,0,0,.458-2.119.6.6,0,0,0-.229-.573c-.286-.286-.859,0-1.6.4l-1.661.8a14.691,14.691,0,0,1-2.978.8,33.417,33.417,0,0,0-6.243,1.833c-6.7,2.978-12.772,12.543-15.006,19.76a.429.429,0,0,0-.286-.057c-.458,0-.8.344-1.26.859-3.207,4.009-6.3,6.014-9.221,6.014-2.234,0-3.322-1.26-3.322-3.837a10.352,10.352,0,0,1,1.718-5.269c1.26-1.947,2.635-2.978,4.124-2.978,1.031,0,1.489.4,1.489,1.2l-.458,1.776a.485.485,0,0,0,.458.515c.516,0,1.088-.573,1.718-1.661a6.192,6.192,0,0,0,.974-2.406c0-.859-.4-1.833-2.291-1.833-2.062,0-4.41,1.317-6.873,3.952a13.864,13.864,0,0,0-3.322,5.212q-.859.515-2.921,2.062c.172-.458.344-.974.344-.974l.515-1.26a14,14,0,0,0,.573-1.375,18.167,18.167,0,0,0,.8-2.119,11.194,11.194,0,0,0,.515-2.921c0-1.088-.344-1.833-1.145-2.119-1.317-.63-1.718-.63-1.947-.458-.115.057-.115.172-.115.286a.974.974,0,0,0,.057.4l.057.229a2.522,2.522,0,0,1,.115.573,2.436,2.436,0,0,1-.115.63c-.687,1.833-2.348,3.666-4.926,5.556a8.011,8.011,0,0,0,.286-1.947c0-3.608-1.661-5.384-5.04-5.384-4.124,0-6.587,3.666-8.477,7.331a1.769,1.769,0,0,0-.4.8.4.4,0,0,0,.458.4c.458,0,.916-.458,1.26-.859l.172-.172.057-.057c1.833-3.265,3.036-5.441,5.9-5.441,2.234,0,3.322,1.26,3.322,3.895a10.172,10.172,0,0,1-1.718,5.212c-1.2,2-2.635,2.978-4.124,2.978-1.031,0-1.489-.344-1.489-1.145l.458-1.776c0-.516-.344-.516-.458-.516-.515,0-1.031.458-1.718,1.661a6.513,6.513,0,0,0-.974,2.406c0,.8.4,1.833,2.291,1.833,2.119,0,4.41-1.317,6.93-3.952a16.159,16.159,0,0,0,2.692-3.837.429.429,0,0,0,.286.057c.286.115,1.088-.115,4.009-2.406a21.8,21.8,0,0,1-.916,3.036l-.4,1.26-.573,1.489a11.611,11.611,0,0,0-.573,2.978,1.961,1.961,0,0,0,1.146,2.062c1.317.63,1.718.63,1.947.458a.421.421,0,0,0,.115-.344,1.117,1.117,0,0,0-.057-.458v-.115c-.057-.057-.458-.573-.458-.573-.172-.172-.229-.286-.229-.4v-.115a12.162,12.162,0,0,1,4.181-4.983v.115c0,3.551,1.661,5.384,5.04,5.384a9.756,9.756,0,0,0,5.1-1.546,26.329,26.329,0,0,0,6.3-5.956,15.971,15.971,0,0,0-.573,3.666c0,2.52.916,3.78,2.635,3.78.515,0,.515-.344.515-.458l-.344-.573a1.772,1.772,0,0,1-.63-1.2c0-1.833,1.146-4.582,3.379-8.247,2.406-3.895,4.3-5.9,5.67-5.9.515,0,.745.687.745,1.947a16.506,16.506,0,0,1-1.2,6.472,21.025,21.025,0,0,1-3.551,5.9c-1.833,2.176-3.78,3.322-5.67,3.322a5.017,5.017,0,0,1-1.546-.344l-.687-.115-.458.115-.115.458c0,1.2,2.119,1.2,2.806,1.2a10.1,10.1,0,0,0,6.816-3.15,20.723,20.723,0,0,0,4.525-6.243,21.762,21.762,0,0,0,2.577-9.393C425.735,295.269,424.991,294.3,423.559,294.3Zm-56.816,18.27c.8-3.436,1.489-6.873,2.119-10.481.516-2.921.859-4.983.859-5.613,0-.286-.172-.745-1.375-.745-1.489,0-1.776.745-1.833,1.146-5.556,10.768-7.789,13.058-8.706,13.058-.63,0-.974-.63-.974-1.89a10.125,10.125,0,0,1,1.6-4.41,19.025,19.025,0,0,0,1.661-3.093c0-.172-.057-.745-1.088-.745-1.375,0-2.52,1.145-3.551,3.551a23.269,23.269,0,0,0-.916,2.52c-3.952,4.7-7.617,7.274-10.939,7.617a18.89,18.89,0,0,0,5.441-6.816c1.833-3.436,2.806-6.472,2.806-9.107,0-2.692-1.26-3.265-2.291-3.265-1.6,0-3.608,1.432-5.9,4.238A54.965,54.965,0,0,0,340,304.089c0-.515.115-3.036.115-3.036,0-3.093-.8-4.7-2.406-4.7-1.776,0-2.234.115-2.234.458l.286.63a2.306,2.306,0,0,1,.458,1.145c0,2.119-.974,4.525-2.864,7.217l-.229.63c0,.573.344.63.573.63.344,0,1.031-.458,2.978-3.608,0,.974.057,3.494.057,3.494v.344c-.115.115-8.477,11.569-8.477,11.569-4.009,5.957-5.956,9.908-5.956,12.085,0,1.776.63,2.635,1.833,2.635,2.119,0,4.868-2.692,8.19-8.076a78.183,78.183,0,0,0,5.5-10.939,12.245,12.245,0,0,0,1.833.4h1.718l1.775.057c1.947,0,4.353-1.031,7.217-3.15a25.057,25.057,0,0,0,3.78-3.265c.057,3.093,1.26,3.723,2.291,3.723a4.911,4.911,0,0,0,3.379-1.833,28.7,28.7,0,0,0,3.494-4.639,29.9,29.9,0,0,0,2.291-3.952c-.687,4.41-1.317,8.133-1.89,10.768a42.957,42.957,0,0,0-16.323,6.7c-6.7,4.3-10.138,8.877-10.138,13.631,0,4.066,3.15,6.987,7.617,6.987,5.441,0,10.6-3.551,15.349-10.481,2.52-3.666,4.582-8.763,6.243-15.292h1.088a3.733,3.733,0,0,1,2.348.573l.172.057a.292.292,0,0,0,.286-.229l.115-.344a1.646,1.646,0,0,0-.4-1.031c-.573-.516-1.661-.745-3.322-.687Zm-30.928.516a49.724,49.724,0,0,1-2.806,8.477c-4.124,7.732-6.529,9.336-7.789,9.336-.057,0-.229,0-.229-.4,0-.515.344-2,2.406-5.956a59.212,59.212,0,0,1,3.494-5.956l1.546-2.234,3.207-4.754a3.268,3.268,0,0,1,.4-.458,3.078,3.078,0,0,0-.286,1.2Zm5.327,0a12.875,12.875,0,0,1-2.119-2.291,43.1,43.1,0,0,1,3.15-7.56c1.775-3.322,3.379-5.326,4.868-6.014l.573-.115c.63,0,.916.63.916,1.833a19.847,19.847,0,0,1-2.234,8.076C344.693,310.217,342.974,312.222,341.142,313.081Zm17.411,15.349a26.129,26.129,0,0,1-5.5,6.873c-2.635,2.234-5.155,3.379-7.847,3.379a5.308,5.308,0,0,1-5.67-5.5c0-3.036,1.661-6.128,4.926-9.221a47.755,47.755,0,0,1,19.072-9.737A43.622,43.622,0,0,1,358.553,328.431Zm-68.1-6.644h-1.833a19.948,19.948,0,0,1-7.388-1.6c-2.921-1.2-4.41-2.921-4.41-5.1,0-4.811,3.093-7.732,9.336-8.878-2.463,6.071-3.666,10.08-3.666,12.314,0,1.489.515,2.234,1.432,2.234.4,0,1.031-.172,1.031-1.2l-.172-1.2c0-2.119,1.489-6.3,4.41-12.543.229,0,1.833-.057,1.833-.057a40.927,40.927,0,0,1,13.23,2.463c5.04,1.718,8.763,3.952,11.054,6.644A45.874,45.874,0,0,1,290.454,321.787Z" transform="translate(2174 -772)" fill="#fad53e" fill-rule="evenodd"/>
    <path id="Path_73" data-name="Path 73" d="M365.712,263.424c0,2.119.057,2.921.057,3.608,5.04,5.785,7.388,12.371,6.873,13.86a16.881,16.881,0,0,1,1.432,1.432c.115-.115.229-.172.229-.229C375.334,280.378,372.929,270.985,365.712,263.424Zm-16.724,14.6c-9.794-5.956-15.407-14.49-12.6-19.072,2.692-4.467,12.371-3.551,21.879,1.947,0-.974,0-2.062-.057-3.379-12.028-7.045-24.456-8.133-28.007-2.348-3.608,5.957,3.494,16.839,15.808,24.341,7.617,4.639,16.323,5.1,22.051,4.353a14.662,14.662,0,0,1-1.6-1.718C361.646,282.325,354.716,281.523,348.988,278.029Z" transform="translate(2174 -772)" fill="#fff" fill-rule="evenodd"/>
    <path id="Path_75" data-name="Path 75" d="M374.532,227.8c-7.9,0-14.319,13.345-14.319,29.84,0,16.438,12.486,29.038,14.319,29.038,2.864,0,14.376-12.6,14.376-29.038C388.908,241.145,382.494,227.8,374.532,227.8Zm0,56.587c-1.432,0-11.111-11.741-11.111-24.742,0-13.059,4.983-23.654,11.111-23.654,6.186,0,11.168,10.6,11.168,23.654C385.7,272.646,376.766,284.387,374.532,284.387Z" transform="translate(2174 -772)" fill="#ec5632" fill-rule="evenodd"/>
    <path id="Path_76" data-name="Path 76" d="M383.524,263.424c0,2.119-.057,2.921-.057,3.608-5.04,5.785-7.388,12.371-6.873,13.86a16.873,16.873,0,0,0-1.432,1.432c-.115-.115-.229-.172-.229-.229C373.9,280.378,376.308,270.985,383.524,263.424Zm16.724,14.6c9.794-5.956,15.407-14.49,12.6-19.072-2.692-4.467-12.371-3.551-21.879,1.947,0-.974,0-2.062.057-3.379,12.028-7.045,24.456-8.133,28.007-2.348,3.608,5.957-3.436,16.839-15.808,24.341-7.617,4.639-16.323,5.1-22.051,4.353a14.662,14.662,0,0,0,1.6-1.718C387.648,282.325,394.521,281.523,400.248,278.029Z" transform="translate(2174 -772)" fill="#88161d" fill-rule="evenodd"/>
  </g>
</svg>
