<?xml version="1.0" encoding="utf-8"?>
<!-- Generator: Adobe Illustrator 19.1.1, SVG Export Plug-In . SVG Version: 6.00 Build 0)  -->
<svg version="1.1" id="Layer_1" xmlns="http://www.w3.org/2000/svg" xmlns:xlink="http://www.w3.org/1999/xlink" x="0px" y="0px"
	 viewBox="0 0 273.7 60.3" style="enable-background:new 0 0 273.7 60.3;" xml:space="preserve">
<style type="text/css">
	.st0{fill-rule:evenodd;clip-rule:evenodd;fill:#ffffff;}
	.st1{fill-rule:evenodd;clip-rule:evenodd;fill:#80B925;}
</style>
<path class="st0" d="M28.4,0c-0.5,0.4-3.7,3.8-6.2,8.1c-1.7,3-2.8,5.8-3.6,8.8c-2.1-1.5-4.4-2.8-7.1-3.9c-4.6-1.9-9.3-2.6-9.9-2.6
	C1.5,11,1.1,15.7,1.8,20.6c0.3,2.5,0.9,4.7,1.7,6.8c1.8-0.4,3.7-0.5,5.6-0.5c7.4,0,14.2,2.7,19.3,7.3c5.2-4.5,11.9-7.3,19.3-7.3
	c1.9,0,3.8,0.2,5.6,0.5c0.8-2.1,1.3-4.3,1.7-6.8c0.7-4.9,0.3-9.6,0.1-10.2c-0.6,0-5.3,0.7-9.9,2.6c-2.7,1.1-5,2.4-7.1,3.9
	c-0.7-2.9-1.8-5.8-3.6-8.8C32.1,3.8,28.9,0.4,28.4,0"/>
<path class="st1" d="M4,30.8c0.5,9.4,6.4,17.3,14.7,20.8c0.9-5.8,3.5-11,7.3-15.1c-4.6-3.9-10.5-6.2-16.9-6.2
	C7.4,30.3,5.7,30.5,4,30.8"/>
<path class="st1" d="M21.3,59.5l1.6,0.8c0.9-2.3,2-4.6,3.2-6.8c0.8,0.1,1.5,0.1,2.3,0.1c13.1,0,23.8-10.1,24.4-22.8
	c-1.6-0.3-3.3-0.5-5.1-0.5c-13.2,0-24.1,9.8-25.8,22.5l0.1,0c5.1-7.4,12.1-13,20.1-16c0.2-0.1,0.3-0.1,0.5-0.2
	c-7.9,4.6-13.5,10.3-17.8,16.7C23.6,55.3,22.4,57.4,21.3,59.5"/>
<path class="st0" d="M177.8,26.5h-11.3V18h10.7c4.7,0,6,1.8,6,4.3C183.3,25.1,181.2,26.5,177.8,26.5 M194.3,43.7l-9.8-10.7
	c4.9-1.9,8.8-5,8.8-10.7c0-7.2-5.2-11-13-11h-25.5v0.2c0.8,0.1,1.7,2.4,1.7,5.3l0,24.1c0,2.9,3.7,5.3,6,5.3h6V46
	c-1.1-0.1-2.1-1.2-2.1-3.1v-9.7h7.6c1.4,1.7,8.2,10.2,9,11.1c0,0,1.6,2,5.3,2h9.3V46C196.7,46,195.4,44.7,194.3,43.7"/>
<path class="st0" d="M220.9,11.3v0.2c0.5,0.1,1.3,2.3,1.3,5.3v16.6c0,4-3.3,5.6-7.9,5.6c-4.6,0-7.9-1.6-7.9-5.6V16.8
	c0-3,0.9-5.2,1.3-5.3v-0.2h-14.2v0.2c1.3,0.1,2.3,1.8,2.3,5.3v14.7c0,8.4,4.6,15.5,18.5,15.5h0h0h0h0c13.9,0,18.5-7.1,18.5-15.5
	V16.8c0-3.5,1-5.2,2.3-5.3v-0.2H220.9z"/>
<path class="st0" d="M106.9,11.3l0,0.2c0.3,0,1,1.1,0.7,2.2c-0.2,0.8-1.5,3.2-2,4.6l-3.7,7.8l-5.6,11.7l-5.6-11.7L87,18.4
	c-0.6-1.4-1.8-3.8-2-4.6c-0.3-1.1,0.4-2.2,0.7-2.2l0-0.2H72.5l0,0.2c0.8,0,1.3,0.9,1.6,1.5c3.9,8.3,14,29.8,14.3,30.7
	c0.4,1.2,0.1,2.3-0.7,2.3v0.2h8.6h0h8.6V46c-0.8-0.1-1.1-1.1-0.7-2.3c0.3-0.9,10.4-22.3,14.3-30.7c0.3-0.6,0.8-1.5,1.6-1.5l0-0.2
	H106.9z"/>
<path class="st0" d="M272,35.2c-0.5-13.8-26.3-8-26.4-13.7c-0.1-3.5,7-3.5,9-3.5c5.2,0,9.8,1.1,12.2,4.1v0l4.1-9.3l-0.3-0.1
	c-0.4,0.1-0.9,0.3-2,0.2c-1.7-0.1-8.3-2.1-15.9-2.1c-13,0-17.4,6.9-17.3,11.8c0.4,13.4,26.2,7.3,26.4,13.5c0.1,3.1-5.1,3.4-7.1,3.4
	c-5.3,0-12.7-1.5-15.3-3.2c-0.1,0-0.1-0.1-0.2-0.1c-0.1-0.1-0.1-0.1-0.2-0.2c-0.8-0.6-1.3-1.2-1.3-1.2l-2.5,9l0.3,0.1
	c0.6-0.3,1.3-0.3,2.2-0.2c0.6,0.1,9.6,2.9,17.3,2.9C267.1,46.8,272.2,41.4,272,35.2"/>
<path class="st0" d="M132.1,31.4L132.1,31.4L132.1,31.4l-5.7-0.1l5.6-11.7h0l5.6,11.7L132.1,31.4L132.1,31.4z M156.4,46
	c-0.6,0-1.8-0.8-2.6-2.4c-4-8.5-12.8-27.4-13.6-29.4c-0.8-1.7-0.3-2.7,0.5-2.8l0-0.2h-17.4l0,0.2c0.8,0.1,1.3,1.1,0.5,2.8
	c-0.9,2-9.7,20.9-13.6,29.4c-0.7,1.6-1.9,2.4-2.6,2.4l0,0.2h11.7c1-2.3,2.8-6.1,3.3-7.1h0.2h9.1h0h0.1h0h9.1h0.2
	c0.5,1,2.3,4.8,3.3,7.1h11.7L156.4,46z"/>
</svg>
