<?xml version="1.0" encoding="UTF-8"?> <!-- Generator: Adobe Illustrator 26.2.1, SVG Export Plug-In . SVG Version: 6.00 Build 0) --> <svg xmlns="http://www.w3.org/2000/svg" xmlns:xlink="http://www.w3.org/1999/xlink" version="1.1" id="Слой_1" x="0px" y="0px" viewBox="0 0 100 50" style="enable-background:new 0 0 100 50;" xml:space="preserve"> <style type="text/css"> .st0{clip-path:url(#SVGID_00000043443994219869002790000002165441348352901533_);} .st1{fill:#FFD300;} .st2{fill:#005CA9;} .st3{fill:#FFFFFF;} </style> <g> <defs> <circle id="SVGID_1_" cx="26.1" cy="25" r="23.9"></circle> </defs> <clipPath id="SVGID_00000014595716410198308150000017451952517313942926_"> <use xlink:href="#SVGID_1_" style="overflow:visible;"></use> </clipPath> <desc>Created with Sketch.</desc> <g style="clip-path:url(#SVGID_00000014595716410198308150000017451952517313942926_);"> <rect x="-10.3" y="25.1" class="st1" width="75.4" height="25"></rect> <rect x="-10.3" y="0.1" class="st2" width="75.4" height="25"></rect> </g> </g> <g> <path class="st3" d="M13.9,16.8c-0.1-0.1-0.2-0.1-0.3,0c-0.1,0.1-0.1,0.2,0,0.3c0.1,0.1,0.2,0.1,0.3,0C14,17,14,16.9,13.9,16.8"></path> <path class="st3" d="M13.6,16.8c-0.1,0.1-0.1,0.2,0,0.3c0.1,0.1,0.2,0.1,0.3,0c0.1-0.1,0.1-0.2,0-0.3 C13.8,16.7,13.6,16.7,13.6,16.8"></path> <path class="st3" d="M19.8,22.2c-0.2,0.2-0.6,0.4-0.9,0.4c-0.6,0-0.9-0.3-0.9-0.9V18h-2v4c0,1.5,0.7,2.2,2,2.2c1,0,1.6-0.3,2-0.8 l0.1,0.7h1.6v-6h-2V22.2z M25.9,22.5c-1,0-1.5-0.6-1.5-1.5c0-0.9,0.5-1.4,1.5-1.4c0.5,0,0.9,0.1,1.3,0.4l0.3-1.6 c-0.5-0.2-1.1-0.4-2-0.4c-1.9,0-3,1.1-3,3.2c0,2.1,1,3.1,3,3.1c0.9,0,1.8-0.3,2.2-0.5l-0.3-1.5C26.9,22.3,26.5,22.5,25.9,22.5 M31.9,17.9c-0.8,0-1.3,0.2-1.7,0.5v-2.6h-2V24h2v-4.2c0.2-0.2,0.6-0.4,0.9-0.4c0.6,0,0.9,0.3,0.9,0.9V24h2v-4 C33.9,18.6,33.3,17.9,31.9,17.9 M45.1,17.9c-1,0-1.6,0.3-2,0.8L42.9,18h-1.6v6h2v-4.2c0.2-0.2,0.6-0.4,0.9-0.4 c0.6,0,0.9,0.3,0.9,0.9V24h1.9v-4C47.1,18.6,46.4,17.9,45.1,17.9 M34.6,21.3c0,2,0.8,2.9,2.2,2.9c0.9,0,1.5-0.3,1.8-0.8l0.1,0.7 h1.6v-5.8c-0.6-0.2-1.4-0.4-2.7-0.4C35.7,17.9,34.6,19.1,34.6,21.3 M38.4,22.2c-0.2,0.2-0.5,0.4-0.9,0.4c-0.5,0-0.8-0.5-0.8-1.4 c0-1.2,0.3-1.7,0.9-1.7c0.4,0,0.6,0,0.8,0.1V22.2z"></path> </g> <g> <path class="st3" d="M13.8,20.2c0.7-1.2,1-3.1,1-3.1l0.8-0.4c0.1,0,0-0.1,0-0.1h-0.9c-0.1-0.3-0.6-0.7-1.3-0.7 c-0.4,0-0.8,0.1-1.1,0.3c0,0-0.5,0.3-1.2,0.9L9,18.9c-0.2,0.1-0.4,0.2-0.6,0.2H5.7c-0.1,0-0.1,0.1,0,0.1c0.2,0.6,0.7,1.1,1.6,1.1 L6.6,21c0,0,0,0.1,0,0.1H9c1.7,0,2.8-0.7,3.5-1.8c0.1-0.1,0.1-0.2,0.2-0.3c0,0,0,0,0,0.1c-0.2,0.4-0.6,1.3-1.4,1.8 c-0.3,0.2-0.4,0.2-0.8,0.4c0,0,0,0,0,0.1l1,2.7H12l-0.9-2.5C11.7,21.5,13,21.4,13.8,20.2z M13.2,16.7c0.1-0.1,0.4-0.2,0.5-0.1 c0,0,0,0-0.1,0c-0.1,0-0.2,0.1-0.2,0.2c0,0.1,0.1,0.2,0.2,0.2c0.1,0,0.2-0.1,0.2-0.2c0,0,0,0,0,0c0.1,0.2,0,0.4-0.1,0.5 c-0.2,0.2-0.4,0.2-0.6,0C13.1,17.2,13.1,16.9,13.2,16.7z"></path> <path class="st3" d="M11.7,21.9l0.8,2.1H13l-0.8-2.2C12.1,21.8,11.9,21.9,11.7,21.9z"></path> <path class="st3" d="M8.8,18.6l1.2-1c0.2-0.7,0.5-1.4,0.8-2c0.1,0.3,0.3,0.6,0.4,1c0.7-0.5,1.1-0.9,1.6-1c-0.3-0.7-0.6-1.2-0.7-1.5 H9.4c-0.2,0.5-1.1,2.2-2.1,4.6h1C8.5,18.7,8.6,18.7,8.8,18.6z"></path> <path class="st3" d="M5.5,24h2.4l0.8-2.5H6.4C6.1,22.2,5.8,23,5.5,24z"></path> <path class="st3" d="M12.7,21.6l0.8,2.4h2.3c-0.5-1.5-1-2.8-1.5-4.1C14,20.8,13.6,21.2,12.7,21.6z"></path> </g> <g> <path class="st3" d="M11.6,27.7L11.6,27.7l-1.8,4c-0.2,0.4-0.4,0.7-0.5,0.9S8.9,32.9,8.6,33c-0.2,0.1-0.5,0.1-0.8,0.1 c-0.2,0-0.3,0-0.4,0C7.2,33.1,7.1,33,7,33l0.3-1c0.2,0.1,0.4,0.1,0.5,0.1c0.3,0,0.5-0.2,0.7-0.5l-1.9-3.8l0-0.1H8l1.1,2.6l1.1-2.6 H11.6z"></path> <path class="st3" d="M17.8,32.9v0.1h-1.4L15,30.9h-0.4V33h-1.3v-5.4h1.3v2.2h0.3l1.5-2.2h1.3v0.1l-1.6,2.5v0.1L17.8,32.9z"></path> <path class="st3" d="M22.4,27.9c0.3,0.1,0.6,0.4,0.8,0.6c0.2,0.3,0.3,0.6,0.3,1s-0.1,0.7-0.3,1c-0.2,0.3-0.4,0.5-0.8,0.6 s-0.7,0.2-1.2,0.2h-0.5V33h-1.3v-5.4h1.8C21.6,27.7,22,27.7,22.4,27.9z M20.7,28.6v1.7h0.5c0.3,0,0.5-0.1,0.6-0.2 c0.1-0.2,0.2-0.4,0.2-0.6c0-0.3-0.1-0.5-0.2-0.6c-0.1-0.1-0.3-0.2-0.6-0.2H20.7z"></path> <path class="st3" d="M27.9,31.8h-1.8L25.8,33h-1.4l1.8-5.4h1.7l1.8,5.4h-1.4L27.9,31.8z M27.6,30.9l-0.4-1.2c0,0,0-0.1-0.1-0.3 l-0.1-0.5H27c0,0.1-0.1,0.3-0.1,0.5s-0.1,0.3-0.1,0.3l-0.4,1.2H27.6z"></path> <path class="st3" d="M31.1,27.4c-0.1-0.1-0.2-0.3-0.2-0.5s0.1-0.4,0.2-0.5c0.1-0.1,0.3-0.2,0.5-0.2c0.2,0,0.4,0.1,0.5,0.2 s0.2,0.3,0.2,0.5s-0.1,0.4-0.2,0.5s-0.3,0.2-0.5,0.2C31.4,27.6,31.2,27.5,31.1,27.4z M33.1,33h-1.3v-5.4h1.3V33z M32.8,27.4 c-0.1-0.1-0.2-0.3-0.2-0.5s0.1-0.4,0.2-0.5c0.1-0.1,0.3-0.2,0.5-0.2c0.2,0,0.4,0.1,0.5,0.2s0.2,0.3,0.2,0.5s-0.1,0.4-0.2,0.5 s-0.3,0.2-0.5,0.2C33.1,27.6,32.9,27.5,32.8,27.4z"></path> <path class="st3" d="M40.2,27.6V33h-1.3V31H37V33h-1.3v-5.4H37v2.2h1.9v-2.2H40.2z"></path> <path class="st3" d="M45.4,31.8h-1.8L43.2,33h-1.4l1.8-5.4h1.7l1.8,5.4h-1.4L45.4,31.8z M45.1,30.9l-0.4-1.2c0,0,0-0.1-0.1-0.3 l-0.1-0.5h-0.1c0,0.1-0.1,0.3-0.1,0.5s-0.1,0.3-0.1,0.3l-0.4,1.2H45.1z"></path> </g> </svg> 