<?xml version="1.0" encoding="UTF-8"?>

<svg version="1.2" baseProfile="tiny" width="152.4mm" height="63.5mm" viewBox="0 0 15240 6350" preserveAspectRatio="xMidYMid" fill-rule="evenodd" stroke-width="28.222" stroke-linejoin="round" xmlns="http://www.w3.org/2000/svg" xmlns:ooo="http://xml.openoffice.org/svg/export" xmlns:xlink="http://www.w3.org/1999/xlink" xml:space="preserve">
 <defs class="ClipPathGroup">
  <clipPath id="presentation_clip_path" clipPathUnits="userSpaceOnUse">
   <rect x="0" y="0" width="15240" height="6350"/>
  </clipPath>
 </defs>
 <defs class="TextShapeIndex">
  <g ooo:slide="id1" ooo:id-list="id3 id4 id5 id6 id7 id8 id9 id10 id11 id12 id13 id14 id15 id16 id17 id18 id19 id20 id21 id22 id23 id24 id25 id26 id27"/>
 </defs>
 <defs class="EmbeddedBulletChars">
  <g id="bullet-char-template(57356)" transform="scale(0.00048828125,-0.00048828125)">
   <path d="M 580,1141 L 1163,571 580,0 -4,571 580,1141 Z"/>
  </g>
  <g id="bullet-char-template(57354)" transform="scale(0.00048828125,-0.00048828125)">
   <path d="M 8,1128 L 1137,1128 1137,0 8,0 8,1128 Z"/>
  </g>
  <g id="bullet-char-template(10146)" transform="scale(0.00048828125,-0.00048828125)">
   <path d="M 174,0 L 602,739 174,1481 1456,739 174,0 Z M 1358,739 L 309,1346 659,739 1358,739 Z"/>
  </g>
  <g id="bullet-char-template(10132)" transform="scale(0.00048828125,-0.00048828125)">
   <path d="M 2015,739 L 1276,0 717,0 1260,543 174,543 174,936 1260,936 717,1481 1274,1481 2015,739 Z"/>
  </g>
  <g id="bullet-char-template(10007)" transform="scale(0.00048828125,-0.00048828125)">
   <path d="M 0,-2 C -7,14 -16,27 -25,37 L 356,567 C 262,823 215,952 215,954 215,979 228,992 255,992 264,992 276,990 289,987 310,991 331,999 354,1012 L 381,999 492,748 772,1049 836,1024 860,1049 C 881,1039 901,1025 922,1006 886,937 835,863 770,784 769,783 710,716 594,584 L 774,223 C 774,196 753,168 711,139 L 727,119 C 717,90 699,76 672,76 641,76 570,178 457,381 L 164,-76 C 142,-110 111,-127 72,-127 30,-127 9,-110 8,-76 1,-67 -2,-52 -2,-32 -2,-23 -1,-13 0,-2 Z"/>
  </g>
  <g id="bullet-char-template(10004)" transform="scale(0.00048828125,-0.00048828125)">
   <path d="M 285,-33 C 182,-33 111,30 74,156 52,228 41,333 41,471 41,549 55,616 82,672 116,743 169,778 240,778 293,778 328,747 346,684 L 369,508 C 377,444 397,411 428,410 L 1163,1116 C 1174,1127 1196,1133 1229,1133 1271,1133 1292,1118 1292,1087 L 1292,965 C 1292,929 1282,901 1262,881 L 442,47 C 390,-6 338,-33 285,-33 Z"/>
  </g>
  <g id="bullet-char-template(9679)" transform="scale(0.00048828125,-0.00048828125)">
   <path d="M 813,0 C 632,0 489,54 383,161 276,268 223,411 223,592 223,773 276,916 383,1023 489,1130 632,1184 813,1184 992,1184 1136,1130 1245,1023 1353,916 1407,772 1407,592 1407,412 1353,268 1245,161 1136,54 992,0 813,0 Z"/>
  </g>
  <g id="bullet-char-template(8226)" transform="scale(0.00048828125,-0.00048828125)">
   <path d="M 346,457 C 273,457 209,483 155,535 101,586 74,649 74,723 74,796 101,859 155,911 209,963 273,989 346,989 419,989 480,963 531,910 582,859 608,796 608,723 608,648 583,586 532,535 482,483 420,457 346,457 Z"/>
  </g>
  <g id="bullet-char-template(8211)" transform="scale(0.00048828125,-0.00048828125)">
   <path d="M -4,459 L 1135,459 1135,606 -4,606 -4,459 Z"/>
  </g>
 </defs>
 <defs class="TextEmbeddedBitmaps"/>
 <g>
  <g id="id2" class="Master_Slide">
   <g id="bg-id2" class="Background"/>
   <g id="bo-id2" class="BackgroundObjects"/>
  </g>
 </g>
 <g class="SlideGroup">
  <g>
   <g id="id1" class="Slide" clip-path="url(#presentation_clip_path)">
    <g class="Page">
     <g class="Group">
      <g class="Group">
       <g class="com.sun.star.drawing.ClosedBezierShape">
        <g id="id3">
         <path fill="rgb(101,50,41)" stroke="none" d="M 5167,2918 L 5154,2867 C 5200,2852 5239,2848 5274,2815 5287,2802 5291,2782 5285,2756 5259,2642 4820,2281 4731,2303 4672,2362 4405,2596 4372,2653 L 4433,2896 C 4450,2970 4539,3018 4622,3020 L 4631,3055 4074,3180 4064,3143 C 4153,3110 4211,3036 4196,2942 4157,2740 4077,2268 3951,2115 3920,2089 3883,2058 3822,2058 L 3816,2023 C 3966,1992 4046,1949 4164,1837 4224,1787 4327,1702 4409,1704 4433,1706 4426,1743 4416,1756 4331,1844 4248,1839 4246,1995 4246,2156 4283,2320 4324,2476 4476,2362 4987,1990 4863,1594 4815,1338 4639,954 4861,728 5004,584 5328,691 5263,936 5252,973 5222,1006 5191,1034 5113,1111 4991,1037 5018,934 5035,862 5081,864 5146,864 5159,864 5167,857 5170,846 5194,748 4978,750 4926,796 4718,973 4907,1367 4983,1566 5059,1765 5100,1966 4933,2143 L 5609,2675 C 5650,2708 5685,2705 5776,2701 L 5789,2753 5167,2918 Z"/>
        </g>
       </g>
       <g class="com.sun.star.drawing.ClosedBezierShape">
        <g id="id4">
         <path fill="rgb(101,50,41)" stroke="none" d="M 8141,1208 L 8729,2448 C 8760,2483 8805,2483 8853,2494 L 8853,2540 8254,2537 8254,2496 C 8288,2487 8297,2492 8343,2470 8464,2422 7925,1326 7906,1326 7808,1501 7119,2317 7232,2778 7252,2879 7297,2984 7384,3045 7495,3124 7717,3097 7717,2933 7717,2925 7710,2885 7699,2885 7660,2944 7543,2981 7510,2826 7510,2704 7710,2640 7782,2782 7962,3292 7195,3299 7152,2793 7074,2325 7413,1912 7715,1481 7799,1363 7921,1162 7717,1094 7708,1092 7704,1087 7699,1083 L 7699,1052 8264,1052 8267,1052 8267,1081 C 8247,1096 8115,1109 8141,1208 Z"/>
        </g>
       </g>
       <g class="com.sun.star.drawing.ClosedBezierShape">
        <g id="id5">
         <path fill="rgb(101,50,41)" stroke="none" d="M 10480,1479 L 10432,2448 C 10432,2476 10443,2500 10461,2520 10480,2540 10500,2557 10519,2570 10541,2583 10578,2601 10595,2610 L 10593,2649 9987,2612 9989,2562 C 9994,2559 9985,2559 10004,2559 10024,2559 10039,2557 10048,2555 10104,2551 10143,2527 10167,2485 10191,2443 10204,2400 10211,2352 L 10246,1687 9424,2247 C 9424,2306 9407,2400 9450,2446 9485,2485 9529,2516 9581,2531 L 9576,2575 8957,2535 8961,2483 C 8996,2483 9096,2498 9150,2411 9174,2369 9192,2325 9196,2277 L 9216,1954 C 9229,1763 9233,1575 9246,1387 9244,1359 9233,1335 9213,1315 9179,1280 9120,1241 9072,1227 L 9074,1192 9648,1225 9650,1225 9648,1260 C 9592,1280 9548,1297 9505,1337 9483,1352 9468,1376 9463,1405 L 9424,2137 10252,1582 C 10252,1523 10274,1435 10228,1389 10193,1354 10133,1315 10087,1302 L 10089,1267 10663,1300 10665,1300 10663,1337 C 10606,1354 10563,1374 10517,1411 10495,1429 10485,1450 10480,1479 Z"/>
        </g>
       </g>
       <g class="com.sun.star.drawing.ClosedBezierShape">
        <g id="id6">
         <path fill="rgb(101,50,41)" stroke="none" d="M 11934,2864 C 11965,2951 12071,2881 12119,2781 L 12302,2831 12302,2840 C 12184,3220 11137,3052 11345,3592 11474,3879 12071,3815 11950,3485 11934,3448 11841,3354 11793,3413 11787,3432 11791,3452 11806,3474 11863,3557 11754,3625 11682,3603 11439,3465 11784,3126 12000,3461 12054,3553 12017,3664 11945,3734 11771,3905 11424,3839 11287,3653 11191,3524 11248,3306 11374,3209 11513,3078 11815,3041 11889,3026 11806,3023 11650,2943 11704,2754 11521,2840 11211,2822 11020,2763 10939,2739 10874,2702 10817,2654 10709,2560 10646,2429 10639,2286 10635,2153 10670,2013 10746,1904 10820,1799 10913,1713 11013,1635 11209,1479 11500,1234 11456,994 11467,906 11259,806 11224,915 11222,926 11226,935 11237,944 11261,957 11298,981 11311,1005 11335,1046 11300,1108 11265,1132 11243,1147 11217,1151 11189,1143 10802,902 11463,460 11558,987 11584,1094 11504,1241 11443,1329 11341,1468 11202,1573 11089,1702 10965,1840 10896,2011 10909,2199 10939,2606 11341,2914 11763,2534 L 11980,1847 C 12008,1635 11871,1700 11867,1611 11871,1591 11876,1576 11904,1582 L 12271,1683 C 12289,1698 12295,1713 12291,1729 L 11934,2864 Z"/>
        </g>
       </g>
       <g class="com.sun.star.drawing.ClosedBezierShape">
        <g id="id7">
         <path fill="rgb(101,50,41)" stroke="none" d="M 13277,1937 C 13327,1950 13375,1969 13423,1987 L 14459,2481 14438,2547 C 14362,2534 14249,2521 14207,2606 L 13784,3492 C 13751,3603 13725,3708 13853,3769 L 13823,3837 13240,3555 13267,3494 C 13393,3555 13456,3496 13532,3395 L 13931,2612 C 13955,2560 13971,2516 13977,2479 13984,2440 13977,2405 13960,2372 13818,2241 13506,2077 13364,2118 13217,2162 13145,2317 13197,2461 13225,2534 13284,2595 13373,2643 13493,2713 13619,2781 13651,2860 13686,2938 13677,3021 13653,3074 13614,3157 13484,3223 13371,3159 13127,3094 13393,2803 13501,3069 13601,3069 13551,2910 13514,2862 13240,2822 12928,2888 12795,3164 12758,3238 12899,3295 12888,3314 12886,3319 12847,3371 12843,3371 L 12282,3100 C 12278,3096 12300,3032 12328,3045 12469,3104 12654,2969 12749,2879 12858,2807 13104,2687 13327,2765 13373,2772 13406,2779 13427,2783 13243,2641 12980,2577 12865,2357 12730,2109 13056,1886 13277,1937 Z"/>
        </g>
       </g>
       <g class="Group">
        <g class="com.sun.star.drawing.ClosedBezierShape">
         <g id="id8">
          <path fill="rgb(101,50,41)" stroke="none" d="M 2590,1721 C 2542,1776 2520,1877 2531,1964 2533,1986 2546,2003 2566,2017 2594,2041 2609,2056 2611,2058 2661,2060 2707,2038 2742,1997 2785,1947 2783,1898 2735,1853 2687,1850 2650,1859 2624,1879 2603,1883 2596,1870 2600,1844 2657,1553 3113,1837 2916,2124 2816,2187 2540,2108 2492,2165 2485,2174 2483,2200 2479,2218 2564,2329 3018,2115 2692,2467 2301,2583 2053,2955 2281,3388 2025,3228 1907,3169 1588,3222 1355,3305 1329,3178 1218,3058 1192,3344 1316,3263 1360,3355 1358,3377 1340,3523 1423,3659 1468,3451 1525,3351 1688,3283 1677,3294 1666,3305 1655,3316 1581,3408 1540,3510 1536,3628 1521,3913 1925,3913 1966,3600 1972,3541 1955,3493 1927,3456 1875,3386 1792,3375 1712,3480 1677,3534 1675,3613 1733,3650 1775,3668 1842,3578 1866,3609 1912,3810 1607,3873 1592,3602 1625,3171 2066,3346 2296,3458 2366,3499 2514,3554 2653,3558 2598,3624 2394,3615 2320,3613 2235,3607 2168,3631 2118,3685 2022,3795 2042,3878 2131,3972 2148,3709 2535,3703 2720,3587 3063,3443 3472,2585 2974,2209 2998,2056 3089,1485 2590,1721 Z M 2590,1721 L 2590,1721 Z M 2666,3453 C 2531,3464 2427,3421 2351,3320 2311,3270 2290,3211 2285,3139 2275,2992 2322,2854 2431,2727 2542,2598 2648,2550 2750,2587 2942,2649 2998,2861 2826,3062 2772,3125 2590,3206 2594,3053 2735,3090 2829,2926 2776,2817 2731,2741 2646,2743 2572,2795 2351,2959 2535,3355 2790,3174 3072,3005 3081,2574 2742,2489 2772,2443 2907,2244 2963,2299 3213,2474 3252,3222 2666,3453 Z"/>
         </g>
        </g>
        <g class="com.sun.star.drawing.ClosedBezierShape">
         <g id="id9">
          <path fill="rgb(101,50,41)" stroke="none" d="M 2158,882 C 1906,960 1684,1111 1493,1334 1259,1610 1091,2008 1115,2375 1126,2566 1178,2721 1272,2841 1345,2937 1439,2999 1550,3023 1978,3119 2397,2738 2410,2314 2415,2187 2388,2089 2334,2019 2154,1748 1804,2085 1860,2157 2082,2128 2110,2292 1932,2502 1865,2581 1767,2616 1639,2612 1548,2607 1472,2566 1411,2487 1033,1999 1556,1109 2163,1135 2786,1166 3195,1654 3316,2235 3375,2507 3368,2769 3297,3023 3240,3222 3132,3416 2973,3605 2677,3950 2245,4199 1771,4051 946,3795 704,2787 898,2028 930,1905 1306,1011 1359,1417 1406,1380 1456,1332 1504,1275 1643,1111 1687,982 1632,888 1585,807 1517,788 1435,820 728,1116 539,2294 676,2942 815,3596 1256,4335 1952,4482 2295,4554 2621,4482 2932,4265 4253,3419 4094,285 2158,882 Z"/>
         </g>
        </g>
        <g class="com.sun.star.drawing.ClosedBezierShape">
         <g id="id10">
          <path fill="rgb(101,50,41)" stroke="none" d="M 1966,1354 C 1416,1299 1212,2399 1922,2406 1938,2380 1957,2319 1935,2290 1640,2268 1525,2207 1507,1881 1516,1756 1568,1638 1670,1525 2244,1070 2055,2095 1772,1840 1775,1831 1775,1822 1777,1816 1901,1796 1972,1752 1957,1691 1970,1599 1870,1518 1777,1577 1692,1625 1588,1717 1685,1907 1951,2165 2381,1522 1966,1354 Z"/>
         </g>
        </g>
        <g class="com.sun.star.drawing.ClosedBezierShape">
         <g id="id11">
          <path fill="rgb(101,50,41)" stroke="none" d="M 2411,1695 C 2274,1711 2246,1492 2303,1424 2509,1225 2726,1656 2411,1695 Z"/>
         </g>
        </g>
       </g>
       <g class="com.sun.star.drawing.ClosedBezierShape">
        <g id="id12">
         <path fill="rgb(101,50,41)" stroke="none" d="M 7062,1453 C 6770,1081 6236,1059 5897,1380 5588,1684 5506,2172 5875,2474 6071,2627 6338,2708 6579,2651 7068,2533 7392,1886 7062,1453 Z M 7062,1453 L 7062,1453 Z M 6436,2579 C 6136,2520 5960,2187 5908,1912 5777,1210 6762,1109 6849,1730 6816,1842 6775,1916 6731,1953 6603,2058 6327,2050 6303,1844 6297,1770 6312,1717 6351,1684 6360,1687 6368,1687 6379,1689 6386,1693 6390,1706 6392,1726 6412,1800 6460,1840 6536,1846 6601,1822 6640,1789 6655,1748 6694,1544 6444,1435 6292,1544 5827,1991 6625,2441 6916,1822 6988,2137 6881,2666 6436,2579 Z"/>
        </g>
       </g>
      </g>
      <g class="Group">
       <g class="com.sun.star.drawing.ClosedBezierShape">
        <g id="id13">
         <path fill="rgb(255,236,0)" stroke="none" d="M 5315,2889 L 5302,2839 C 5348,2823 5387,2819 5422,2786 5435,2773 5439,2753 5433,2727 5406,2614 4968,2253 4878,2275 4820,2334 4553,2568 4520,2624 L 4581,2867 C 4598,2942 4687,2990 4770,2992 L 4779,3027 4222,3152 4211,3114 C 4300,3082 4359,3007 4344,2913 4305,2712 4224,2240 4098,2086 4068,2060 4031,2030 3970,2030 L 3964,1995 C 4114,1964 4194,1920 4311,1809 4372,1758 4474,1673 4557,1675 4581,1677 4574,1715 4563,1728 4479,1815 4396,1811 4394,1966 4394,2128 4431,2292 4472,2447 4624,2334 5135,1962 5011,1566 4963,1310 4787,925 5009,700 5152,555 5476,663 5411,908 5400,945 5370,978 5339,1006 5261,1083 5139,1008 5165,905 5183,833 5228,835 5293,835 5307,835 5315,829 5317,818 5341,720 5126,722 5074,768 4865,945 5054,1338 5131,1537 5207,1737 5248,1938 5081,2115 L 5756,2646 C 5798,2679 5832,2677 5924,2673 L 5937,2725 5315,2889 Z"/>
        </g>
       </g>
       <g class="com.sun.star.drawing.ClosedBezierShape">
        <g id="id14">
         <path fill="rgb(255,236,0)" stroke="none" d="M 8288,1179 L 8877,2419 C 8908,2454 8953,2454 9001,2465 L 9001,2511 8401,2509 8401,2467 C 8436,2459 8445,2463 8490,2441 8612,2393 8073,1297 8054,1297 7956,1472 7267,2288 7380,2750 7400,2850 7445,2955 7532,3016 7643,3095 7865,3069 7865,2905 7865,2896 7858,2857 7847,2857 7808,2916 7691,2953 7658,2798 7658,2675 7858,2612 7930,2754 8110,3264 7343,3270 7300,2765 7221,2297 7560,1884 7862,1453 7947,1335 8069,1133 7865,1066 7856,1063 7852,1059 7847,1055 L 7847,1024 8412,1024 8414,1024 8414,1052 C 8395,1068 8262,1081 8288,1179 Z"/>
        </g>
       </g>
       <g class="com.sun.star.drawing.ClosedBezierShape">
        <g id="id15">
         <path fill="rgb(255,236,0)" stroke="none" d="M 10628,1450 L 10580,2419 C 10580,2448 10591,2472 10608,2492 10628,2511 10648,2529 10667,2542 10689,2555 10726,2572 10743,2581 L 10741,2621 10135,2583 10137,2533 C 10141,2531 10133,2531 10152,2531 10172,2531 10187,2529 10196,2527 10252,2522 10291,2498 10315,2457 10339,2415 10352,2371 10359,2323 L 10393,1658 9572,2218 C 9572,2277 9555,2371 9598,2417 9633,2457 9676,2487 9728,2502 L 9724,2546 9105,2507 9109,2454 C 9144,2454 9244,2470 9298,2382 9322,2341 9339,2297 9344,2249 L 9363,1925 C 9376,1735 9381,1547 9394,1359 9392,1330 9381,1306 9361,1286 9326,1251 9268,1212 9220,1199 L 9222,1164 9796,1197 9798,1197 9796,1232 C 9739,1251 9696,1269 9652,1308 9631,1324 9615,1348 9611,1376 L 9572,2109 10400,1553 C 10400,1494 10422,1407 10376,1361 10341,1326 10280,1286 10235,1273 L 10237,1238 10811,1271 10813,1271 10811,1308 C 10754,1326 10711,1346 10665,1383 10643,1400 10632,1422 10628,1450 Z"/>
        </g>
       </g>
       <g class="com.sun.star.drawing.ClosedBezierShape">
        <g id="id16">
         <path fill="rgb(255,236,0)" stroke="none" d="M 12082,2835 C 12113,2923 12219,2853 12267,2752 L 12449,2803 12449,2811 C 12332,3192 11285,3023 11493,3564 11621,3850 12219,3787 12097,3456 12082,3419 11989,3325 11941,3384 11934,3404 11939,3424 11954,3446 12010,3529 11902,3596 11830,3575 11587,3437 11932,3098 12147,3432 12202,3524 12165,3636 12093,3706 11919,3876 11571,3811 11435,3625 11339,3496 11395,3277 11521,3181 11661,3050 11963,3013 12036,2997 11954,2995 11797,2914 11852,2726 11669,2811 11359,2794 11167,2735 11087,2711 11022,2674 10965,2625 10857,2531 10794,2400 10787,2258 10783,2125 10817,1985 10894,1875 10967,1770 11061,1685 11161,1606 11356,1451 11648,1206 11604,965 11615,878 11406,777 11372,887 11369,898 11374,906 11385,915 11408,928 11445,952 11458,976 11482,1018 11448,1079 11413,1103 11391,1119 11365,1123 11337,1114 10950,874 11611,432 11706,959 11732,1066 11652,1213 11591,1300 11489,1440 11350,1545 11237,1674 11113,1812 11043,1982 11056,2171 11087,2577 11489,2886 11910,2505 L 12128,1818 C 12156,1606 12019,1672 12015,1582 12019,1563 12023,1547 12052,1554 L 12419,1654 C 12436,1670 12443,1685 12438,1700 L 12082,2835 Z"/>
        </g>
       </g>
       <g class="com.sun.star.drawing.ClosedBezierShape">
        <g id="id17">
         <path fill="rgb(255,236,0)" stroke="none" d="M 13423,1908 C 13473,1921 13521,1941 13569,1958 L 14605,2453 14583,2518 C 14507,2505 14394,2492 14353,2577 L 13929,3463 C 13897,3575 13871,3680 13999,3741 L 13968,3809 13386,3527 13412,3465 C 13538,3527 13601,3468 13677,3367 L 14077,2584 C 14101,2531 14116,2488 14123,2451 14129,2411 14123,2376 14105,2343 13964,2212 13651,2048 13510,2090 13362,2133 13290,2289 13343,2433 13371,2505 13430,2566 13519,2615 13638,2685 13764,2752 13797,2831 13831,2910 13823,2993 13799,3045 13760,3129 13629,3194 13516,3131 13273,3065 13538,2774 13647,3041 13747,3041 13697,2881 13660,2833 13386,2794 13073,2860 12941,3135 12904,3209 13045,3266 13034,3286 13032,3290 12993,3343 12988,3343 L 12428,3072 C 12423,3067 12445,3004 12473,3017 12615,3076 12799,2940 12895,2851 13004,2779 13249,2658 13473,2737 13519,2744 13551,2750 13573,2755 13388,2612 13125,2549 13010,2328 12875,2081 13201,1858 13423,1908 Z"/>
        </g>
       </g>
       <g class="Group">
        <g class="com.sun.star.drawing.ClosedBezierShape">
         <g id="id18">
          <path fill="rgb(255,236,0)" stroke="none" d="M 2737,1693 C 2690,1748 2668,1848 2679,1936 2681,1958 2694,1975 2713,1988 2742,2012 2757,2028 2759,2030 2809,2032 2855,2010 2889,1968 2933,1918 2931,1870 2883,1824 2835,1822 2798,1831 2772,1850 2750,1855 2744,1842 2748,1815 2805,1525 3261,1809 3063,2095 2963,2159 2687,2080 2640,2137 2633,2146 2631,2172 2627,2189 2711,2301 3165,2087 2839,2439 2448,2555 2201,2926 2429,3359 2172,3200 2055,3141 1736,3193 1503,3276 1477,3149 1366,3029 1340,3316 1464,3235 1507,3327 1505,3349 1488,3495 1570,3631 1616,3423 1673,3322 1836,3254 1825,3265 1814,3276 1803,3287 1729,3379 1688,3482 1683,3600 1668,3884 2072,3884 2114,3572 2120,3513 2103,3464 2075,3427 2022,3357 1940,3346 1859,3451 1825,3506 1823,3585 1881,3622 1923,3639 1990,3550 2014,3580 2059,3782 1755,3845 1740,3574 1773,3143 2214,3318 2444,3429 2514,3471 2661,3526 2800,3530 2746,3596 2542,3587 2468,3585 2383,3578 2316,3602 2266,3657 2170,3766 2190,3849 2279,3943 2296,3681 2683,3674 2868,3558 3211,3414 3620,2557 3122,2181 3146,2028 3237,1457 2737,1693 Z M 2737,1693 L 2737,1693 Z M 2813,3425 C 2679,3436 2574,3392 2498,3292 2459,3241 2437,3182 2433,3110 2422,2964 2470,2826 2579,2699 2690,2570 2796,2522 2898,2559 3089,2620 3146,2832 2974,3034 2920,3097 2737,3178 2742,3025 2883,3062 2976,2898 2924,2789 2879,2712 2794,2714 2720,2767 2498,2931 2683,3327 2937,3145 3220,2977 3228,2546 2889,2461 2920,2415 3055,2216 3111,2270 3361,2445 3400,3193 2813,3425 Z"/>
         </g>
        </g>
        <g class="com.sun.star.drawing.ClosedBezierShape">
         <g id="id19">
          <path fill="rgb(255,236,0)" stroke="none" d="M 2306,853 C 2054,932 1832,1083 1641,1306 1406,1582 1239,1980 1263,2347 1274,2537 1326,2693 1419,2813 1493,2909 1587,2970 1698,2994 2126,3091 2545,2710 2558,2286 2562,2159 2536,2060 2482,1991 2302,1719 1952,2056 2008,2128 2230,2100 2258,2264 2080,2474 2013,2553 1915,2588 1787,2583 1695,2579 1619,2537 1558,2459 1180,1971 1704,1081 2310,1107 2934,1138 3342,1625 3464,2207 3523,2478 3516,2741 3445,2994 3388,3193 3279,3388 3121,3576 2825,3922 2393,4171 1919,4022 1093,3766 852,2758 1046,1999 1078,1877 1454,982 1506,1389 1554,1352 1604,1304 1652,1247 1791,1083 1834,954 1780,860 1732,779 1665,759 1582,792 876,1087 687,2266 824,2913 963,3567 1404,4307 2100,4453 2443,4525 2769,4453 3079,4237 4401,3390 4242,256 2306,853 Z"/>
         </g>
        </g>
        <g class="com.sun.star.drawing.ClosedBezierShape">
         <g id="id20">
          <path fill="rgb(255,236,0)" stroke="none" d="M 2111,1326 C 1562,1271 1357,2371 2068,2378 2083,2351 2103,2290 2081,2262 1785,2240 1670,2179 1653,1853 1662,1728 1714,1610 1816,1496 2390,1041 2200,2067 1918,1811 1920,1802 1920,1794 1922,1787 2046,1767 2118,1724 2103,1662 2116,1571 2016,1490 1922,1549 1838,1597 1733,1689 1831,1879 2096,2137 2526,1494 2111,1326 Z"/>
         </g>
        </g>
        <g class="com.sun.star.drawing.ClosedBezierShape">
         <g id="id21">
          <path fill="rgb(255,236,0)" stroke="none" d="M 2557,1667 C 2420,1682 2392,1463 2448,1396 2655,1197 2872,1627 2557,1667 Z"/>
         </g>
        </g>
       </g>
       <g class="com.sun.star.drawing.ClosedBezierShape">
        <g id="id22">
         <path fill="rgb(255,236,0)" stroke="none" d="M 7209,1424 C 6918,1052 6384,1030 6045,1352 5736,1656 5654,2144 6023,2445 6218,2599 6486,2679 6727,2623 7216,2504 7540,1857 7209,1424 Z M 7209,1424 L 7209,1424 Z M 6584,2550 C 6284,2491 6108,2159 6056,1883 5925,1181 6909,1081 6996,1702 6964,1813 6923,1888 6879,1925 6751,2030 6475,2021 6451,1816 6444,1741 6460,1689 6499,1656 6507,1658 6516,1658 6527,1660 6534,1665 6538,1678 6540,1697 6560,1772 6607,1811 6683,1818 6749,1794 6788,1761 6803,1719 6842,1516 6592,1407 6440,1516 5975,1962 6773,2413 7064,1794 7135,2109 7029,2638 6584,2550 Z"/>
        </g>
       </g>
      </g>
      <g class="com.sun.star.drawing.ClosedBezierShape">
       <g id="id23">
        <path fill="rgb(101,50,41)" stroke="none" d="M 3848,4786 L 4372,4313 4668,4300 5041,4281 4513,4167 4516,4162 4516,4162 4518,4162 4522,4158 4503,4158 4861,3917 4878,3917 7482,4169 C 7888,4182 8290,4186 8698,4184 L 11278,4003 11293,4003 11647,4252 11625,4254 11632,4259 11634,4259 11632,4259 11636,4261 11104,4361 11475,4394 11771,4414 12282,4897 12279,4899 12282,4902 12286,4899 11649,5433 11313,5715 11308,5715 11308,5715 11060,5711 11060,5711 11056,5711 10235,5665 10265,5623 9235,5545 C 8427,5505 7671,5494 6860,5514 L 5848,5567 5876,5608 5052,5630 5048,5630 5048,5630 4800,5628 4800,5628 4798,5628 4470,5337 3846,4788 3851,4788 3851,4788 3848,4786 Z"/>
       </g>
      </g>
      <g class="com.sun.star.drawing.ClosedBezierShape">
       <g id="id24">
        <path fill="rgb(255,236,0)" stroke="none" d="M 3977,4692 L 4500,4219 4796,4206 5170,4186 4642,4073 4644,4068 4644,4068 4646,4068 4650,4064 4631,4064 4989,3823 5007,3823 7610,4075 C 8016,4088 8418,4092 8827,4090 L 11406,3909 11421,3909 11775,4158 11754,4160 11760,4165 11762,4165 11760,4165 11764,4167 11232,4267 11604,4300 11899,4320 12410,4803 12408,4805 12410,4808 12414,4805 11778,5339 11441,5621 11436,5621 11436,5621 11189,5617 11189,5617 11184,5617 10363,5571 10393,5529 9363,5451 C 8555,5411 7799,5400 6988,5420 L 5976,5472 6004,5514 5181,5536 5176,5536 5176,5536 4928,5534 4928,5534 4926,5534 4598,5243 3975,4694 3979,4694 3979,4694 3977,4692 Z"/>
       </g>
      </g>
      <g class="com.sun.star.drawing.ClosedBezierShape">
       <g id="id25">
        <path fill="rgb(101,50,41)" stroke="none" d="M 8609,4602 C 8657,4602 8694,4637 8694,4681 8694,4729 8657,4766 8609,4766 8566,4766 8531,4729 8531,4681 8531,4637 8566,4602 8609,4602 Z"/>
       </g>
      </g>
      <g class="com.sun.star.drawing.ClosedBezierShape">
       <g id="id26">
        <path fill="rgb(101,50,41)" stroke="none" d="M 9300,4488 C 9276,4497 9257,4508 9240,4523 9246,4506 9248,4488 9248,4471 9248,4449 9240,4434 9220,4423 9200,4410 9177,4405 9150,4405 9140,4405 9133,4405 9127,4405 9122,4405 9114,4405 9105,4405 9096,4407 9090,4407 9085,4410 9079,4412 9074,4412 9068,4414 9064,4418 9059,4420 9057,4425 9053,4429 9053,4434 9053,4438 L 9035,4845 C 9035,4851 9040,4858 9046,4864 9050,4869 9059,4871 9068,4871 9090,4871 9109,4869 9131,4862 9124,4875 9122,4891 9122,4906 9114,4908 9107,4910 9098,4910 9087,4910 9068,4908 9046,4904 9022,4899 9003,4899 8992,4899 8983,4899 8970,4899 8953,4904 8935,4906 8922,4908 8914,4908 8905,4908 8894,4906 8885,4906 L 8881,4862 C 8894,4869 8909,4871 8924,4871 8931,4871 8935,4869 8940,4862 8944,4858 8946,4851 8946,4845 L 8931,4438 C 8931,4431 8929,4425 8924,4420 8922,4414 8918,4412 8911,4412 8896,4412 8883,4414 8872,4420 L 8877,4379 C 8885,4377 8894,4375 8901,4375 8911,4375 8927,4377 8946,4381 8966,4383 8981,4386 8992,4386 9016,4386 9053,4381 9100,4377 9150,4372 9185,4370 9211,4370 9237,4370 9266,4372 9292,4379 9287,4388 9287,4396 9287,4405 9287,4434 9292,4462 9300,4488 Z M 9300,4488 L 9300,4488 Z M 9741,4729 C 9741,4762 9733,4792 9718,4821 9705,4849 9683,4871 9657,4889 9631,4906 9602,4915 9572,4915 9535,4915 9500,4906 9468,4891 9437,4875 9413,4851 9394,4823 9374,4794 9366,4764 9366,4729 9366,4696 9372,4665 9387,4635 9403,4606 9422,4585 9448,4567 9474,4550 9502,4541 9537,4541 9572,4541 9607,4550 9637,4565 9668,4580 9694,4604 9713,4633 9731,4663 9741,4694 9741,4729 Z M 9741,4729 L 9741,4729 Z M 9639,4764 C 9639,4744 9637,4722 9633,4700 9628,4681 9622,4661 9613,4639 9607,4622 9596,4606 9583,4595 9568,4582 9552,4578 9537,4578 9489,4578 9466,4615 9466,4692 9466,4714 9468,4735 9472,4757 9476,4777 9483,4797 9492,4816 9500,4834 9513,4849 9526,4860 9539,4873 9555,4878 9572,4878 9618,4878 9639,4840 9639,4764 Z M 9639,4764 L 9639,4764 Z M 10159,4633 C 10141,4644 10128,4655 10115,4670 10104,4657 10100,4639 10100,4622 10100,4604 10080,4595 10046,4595 L 10033,4595 10017,4845 C 10017,4851 10020,4858 10026,4864 10033,4869 10039,4871 10050,4871 10072,4871 10094,4869 10113,4862 L 10107,4906 C 10094,4906 10078,4908 10065,4908 10054,4908 10039,4906 10020,4904 9998,4899 9983,4899 9974,4899 9963,4899 9948,4899 9928,4904 9907,4906 9891,4908 9881,4908 9868,4908 9854,4906 9839,4906 L 9833,4862 C 9854,4869 9876,4871 9898,4871 9907,4871 9913,4869 9920,4864 9926,4858 9931,4851 9928,4845 L 9913,4595 9900,4595 C 9883,4595 9868,4600 9854,4606 9841,4615 9835,4624 9835,4639 9835,4652 9837,4661 9841,4670 9824,4655 9807,4639 9789,4633 9789,4602 9796,4574 9811,4550 9831,4550 9857,4552 9891,4554 9928,4558 9954,4560 9974,4560 9991,4560 10017,4558 10054,4554 10089,4552 10117,4550 10135,4550 10135,4580 10143,4606 10159,4633 Z M 10159,4633 L 10159,4633 Z M 10563,4724 L 10330,4724 C 10322,4724 10313,4727 10306,4729 10302,4731 10298,4735 10300,4742 10306,4781 10324,4814 10346,4840 10369,4864 10398,4878 10432,4878 10446,4878 10459,4869 10472,4854 10485,4838 10491,4823 10491,4808 10504,4821 10519,4832 10535,4838 10519,4860 10502,4880 10480,4893 10459,4908 10437,4915 10415,4915 10376,4915 10339,4906 10306,4891 10274,4875 10246,4854 10226,4825 10204,4797 10193,4764 10193,4729 10193,4679 10213,4633 10248,4595 10285,4560 10328,4541 10378,4541 10413,4541 10443,4550 10472,4565 10500,4582 10522,4604 10539,4630 10554,4661 10563,4692 10563,4724 Z M 10563,4724 L 10563,4724 Z M 10439,4672 C 10435,4646 10426,4620 10413,4602 10400,4587 10383,4578 10361,4578 10346,4578 10333,4582 10324,4593 10313,4604 10306,4620 10302,4635 10298,4652 10296,4670 10296,4689 L 10409,4689 C 10417,4689 10426,4687 10432,4685 10439,4683 10441,4679 10439,4672 Z M 10439,4672 L 10439,4672 Z M 11010,4593 C 11000,4587 10987,4585 10974,4585 10965,4585 10958,4593 10958,4611 L 10941,4845 C 10941,4851 10943,4858 10945,4862 10950,4869 10954,4871 10961,4871 10976,4871 10989,4869 11002,4862 L 10995,4906 C 10987,4906 10980,4908 10971,4908 10963,4908 10950,4906 10934,4904 10917,4899 10906,4899 10897,4899 10889,4899 10876,4899 10861,4904 10845,4906 10832,4908 10824,4908 10815,4908 10808,4906 10800,4906 L 10793,4862 C 10806,4869 10819,4871 10834,4871 10839,4871 10845,4869 10848,4862 10852,4858 10854,4851 10854,4845 L 10839,4611 C 10837,4593 10830,4585 10819,4585 L 10771,4585 C 10761,4585 10754,4587 10748,4591 10741,4598 10739,4604 10739,4611 L 10739,4729 C 10739,4762 10732,4790 10721,4819 10711,4847 10695,4869 10674,4886 10652,4906 10626,4915 10600,4915 10602,4893 10602,4869 10600,4847 10628,4847 10652,4836 10674,4812 10693,4788 10702,4762 10702,4729 L 10702,4611 C 10702,4604 10700,4598 10693,4591 10687,4587 10680,4585 10672,4585 10650,4585 10628,4587 10608,4593 L 10615,4550 C 10628,4550 10641,4547 10654,4547 10663,4547 10674,4547 10687,4550 10702,4550 10713,4550 10721,4550 L 10897,4550 C 10906,4550 10921,4550 10941,4550 10961,4547 10974,4547 10982,4547 10991,4547 10997,4550 11004,4550 L 11010,4593 Z M 11010,4593 L 11010,4593 Z M 11399,4803 C 11399,4836 11386,4862 11358,4882 11332,4904 11299,4915 11263,4915 11252,4915 11236,4913 11217,4906 11195,4902 11180,4899 11169,4899 11163,4899 11150,4899 11132,4904 11117,4906 11104,4908 11095,4908 11089,4908 11080,4906 11071,4906 L 11067,4862 C 11078,4869 11093,4871 11106,4871 11113,4871 11117,4869 11121,4862 11126,4858 11126,4851 11126,4845 L 11110,4611 C 11110,4604 11108,4598 11106,4591 11102,4587 11097,4585 11093,4585 11080,4585 11069,4587 11058,4593 L 11063,4550 C 11069,4550 11078,4547 11084,4547 11093,4547 11108,4550 11128,4552 11145,4556 11160,4556 11169,4556 11180,4556 11193,4556 11213,4552 11232,4550 11245,4547 11256,4547 11263,4547 11269,4550 11276,4550 L 11282,4593 C 11271,4587 11260,4585 11247,4585 11243,4585 11239,4587 11234,4591 11232,4598 11230,4604 11230,4611 L 11223,4698 C 11236,4694 11250,4692 11263,4692 11299,4692 11332,4703 11358,4724 11386,4744 11399,4770 11399,4803 Z M 11399,4803 L 11399,4803 Z M 11299,4803 C 11299,4753 11286,4729 11263,4729 11247,4729 11234,4731 11221,4735 L 11215,4845 C 11213,4856 11217,4862 11228,4869 11236,4875 11247,4878 11263,4878 11286,4878 11299,4854 11299,4803 Z"/>
       </g>
      </g>
      <g class="com.sun.star.drawing.ClosedBezierShape">
       <g id="id27">
        <path fill="rgb(101,50,41)" stroke="none" d="M 5248,4530 C 5248,4589 5228,4635 5189,4670 5152,4703 5100,4718 5037,4718 5009,4718 4983,4714 4959,4703 L 4952,4829 C 4952,4840 4959,4847 4968,4851 4978,4854 4994,4856 5011,4856 5031,4856 5046,4856 5057,4854 5065,4854 5081,4851 5098,4847 5098,4864 5100,4880 5104,4893 5087,4895 5072,4897 5054,4897 5037,4897 5013,4895 4981,4891 4948,4886 4924,4886 4909,4886 4900,4886 4887,4886 4870,4891 4852,4893 4839,4895 4831,4895 4822,4895 4811,4893 4802,4893 L 4798,4847 C 4811,4854 4826,4856 4842,4856 4848,4856 4852,4854 4857,4847 4861,4843 4863,4836 4863,4829 L 4848,4423 C 4848,4416 4846,4410 4842,4405 4839,4399 4835,4396 4828,4396 4813,4396 4800,4399 4789,4405 L 4794,4364 C 4802,4361 4811,4359 4818,4359 4828,4359 4844,4361 4863,4366 4883,4368 4898,4370 4909,4370 4922,4370 4944,4366 4972,4361 5000,4357 5022,4355 5037,4355 5063,4355 5089,4357 5115,4366 5141,4375 5163,4388 5183,4401 5202,4416 5220,4436 5230,4458 5241,4480 5248,4501 5248,4530 Z M 5248,4530 L 5248,4530 Z M 5137,4539 C 5137,4512 5133,4488 5126,4466 5117,4445 5107,4425 5091,4412 5076,4396 5057,4390 5037,4390 4991,4390 4970,4401 4970,4423 L 4959,4659 C 4983,4674 5009,4683 5037,4683 5052,4683 5065,4679 5078,4670 5091,4663 5102,4652 5111,4637 5120,4624 5126,4609 5131,4591 5135,4576 5137,4558 5137,4539 Z M 5137,4539 L 5137,4539 Z M 5678,4709 L 5443,4709 C 5435,4709 5426,4711 5422,4714 5415,4716 5413,4720 5413,4727 5422,4766 5437,4799 5461,4825 5483,4849 5513,4862 5546,4862 5559,4862 5572,4854 5585,4838 5598,4823 5604,4808 5604,4792 5617,4805 5632,4816 5650,4823 5632,4845 5615,4864 5593,4880 5572,4895 5550,4902 5528,4902 5489,4902 5454,4893 5420,4878 5387,4860 5359,4838 5339,4810 5317,4781 5309,4749 5309,4714 5309,4663 5326,4620 5361,4582 5398,4547 5441,4525 5491,4525 5526,4525 5556,4536 5585,4552 5613,4569 5635,4591 5652,4617 5672,4646 5678,4676 5678,4709 Z M 5678,4709 L 5678,4709 Z M 5554,4657 C 5548,4630 5539,4606 5526,4589 5513,4574 5496,4565 5474,4565 5459,4565 5448,4569 5437,4580 5426,4591 5420,4606 5415,4622 5411,4637 5409,4655 5409,4674 L 5522,4674 C 5533,4674 5539,4672 5546,4670 5552,4668 5554,4663 5554,4657 Z M 5554,4657 L 5554,4657 Z M 6069,4810 C 6052,4838 6028,4860 6000,4878 5971,4893 5941,4902 5908,4902 5878,4902 5850,4893 5822,4873 5793,4854 5769,4829 5752,4799 5735,4770 5726,4740 5726,4709 5726,4685 5732,4661 5741,4639 5750,4615 5763,4598 5780,4580 5795,4565 5815,4552 5837,4543 5861,4532 5885,4525 5908,4525 5939,4525 5967,4536 5993,4552 6019,4569 6039,4591 6052,4617 6017,4637 5987,4659 5958,4689 5963,4668 5963,4648 5958,4628 5954,4611 5945,4595 5935,4582 5921,4569 5908,4565 5891,4565 5876,4565 5863,4569 5854,4580 5843,4591 5837,4606 5832,4622 5830,4637 5828,4655 5828,4672 5828,4700 5832,4727 5843,4757 5852,4786 5865,4810 5885,4832 5902,4851 5924,4862 5943,4862 5958,4862 5969,4860 5980,4854 5991,4847 6000,4840 6004,4832 6011,4821 6015,4814 6017,4805 6021,4797 6021,4792 6021,4786 6037,4797 6054,4805 6069,4810 Z M 6069,4810 L 6069,4810 Z M 6476,4620 C 6460,4628 6445,4639 6434,4655 6421,4641 6417,4626 6417,4609 6417,4591 6397,4582 6363,4582 L 6350,4582 6334,4829 C 6334,4836 6337,4843 6343,4849 6350,4854 6358,4856 6367,4856 6389,4856 6410,4854 6430,4847 L 6423,4893 C 6410,4893 6397,4895 6382,4895 6371,4895 6356,4893 6337,4891 6317,4886 6302,4886 6291,4886 6280,4886 6265,4886 6245,4891 6224,4893 6208,4895 6200,4895 6184,4895 6171,4893 6156,4893 L 6152,4847 C 6171,4854 6193,4856 6215,4856 6224,4856 6232,4854 6239,4849 6245,4843 6247,4836 6245,4829 L 6230,4582 6217,4582 C 6200,4582 6184,4587 6171,4593 6160,4602 6154,4611 6154,4626 6154,4637 6156,4646 6158,4655 6143,4639 6124,4626 6106,4620 6106,4589 6113,4560 6130,4536 6147,4536 6174,4539 6210,4541 6245,4545 6271,4547 6291,4547 6308,4547 6337,4545 6371,4541 6406,4539 6434,4536 6452,4536 6452,4567 6460,4593 6476,4620 Z M 6476,4620 L 6476,4620 Z M 6904,4714 C 6904,4746 6895,4777 6880,4805 6867,4834 6845,4856 6819,4875 6793,4893 6765,4902 6734,4902 6697,4902 6665,4893 6632,4878 6602,4860 6578,4836 6558,4808 6539,4779 6530,4749 6530,4714 6530,4681 6536,4650 6552,4622 6567,4593 6586,4571 6612,4554 6639,4536 6667,4525 6699,4525 6734,4525 6769,4536 6799,4552 6830,4567 6856,4591 6875,4620 6893,4648 6904,4679 6904,4714 Z M 6904,4714 L 6904,4714 Z M 6802,4749 C 6802,4729 6799,4707 6795,4685 6791,4665 6784,4646 6775,4626 6769,4609 6758,4593 6743,4582 6730,4569 6715,4565 6699,4565 6654,4565 6630,4602 6630,4676 6630,4698 6632,4720 6636,4742 6641,4762 6647,4781 6656,4801 6662,4819 6673,4834 6689,4845 6702,4858 6717,4862 6734,4862 6780,4862 6802,4825 6802,4749 Z M 6802,4749 L 6802,4749 Z M 7343,4624 C 7353,4652 7360,4681 7360,4714 7360,4746 7353,4777 7340,4803 7327,4832 7310,4856 7286,4875 7262,4893 7236,4902 7206,4902 7171,4902 7143,4889 7117,4860 L 7112,4989 C 7112,4996 7114,5000 7119,5002 7121,5007 7127,5009 7132,5009 7147,5009 7160,5007 7173,5004 L 7169,5042 C 7160,5044 7151,5044 7143,5044 7134,5044 7121,5042 7106,5039 7088,5037 7075,5035 7069,5035 7049,5035 7032,5037 7014,5042 7021,5024 7025,5007 7023,4989 L 7008,4589 C 7008,4585 7008,4580 7004,4576 7001,4574 6997,4571 6993,4571 6982,4571 6973,4574 6962,4576 L 6969,4536 C 6975,4536 6984,4534 6993,4534 7001,4534 7014,4536 7030,4539 7047,4543 7060,4543 7069,4543 7091,4543 7114,4541 7136,4536 7132,4547 7130,4558 7130,4571 7154,4543 7184,4525 7219,4525 7247,4525 7271,4536 7293,4556 7314,4574 7332,4595 7343,4624 Z M 7343,4624 L 7343,4624 Z M 7258,4749 C 7258,4738 7258,4729 7258,4722 7258,4716 7258,4707 7258,4696 7258,4685 7256,4676 7256,4670 7256,4663 7253,4655 7253,4646 7251,4635 7249,4628 7249,4622 7247,4617 7245,4611 7240,4604 7238,4598 7234,4591 7232,4589 7227,4585 7223,4582 7217,4580 7212,4578 7206,4576 7201,4576 7186,4576 7171,4580 7158,4587 7145,4595 7134,4606 7125,4620 L 7119,4805 C 7125,4823 7134,4836 7147,4847 7158,4858 7173,4862 7188,4862 7210,4862 7227,4851 7240,4829 7251,4808 7258,4781 7258,4749 Z M 7258,4749 L 7258,4749 Z M 7777,4851 L 7771,4893 C 7764,4893 7755,4895 7749,4895 7740,4895 7729,4893 7714,4891 7699,4886 7688,4886 7679,4886 7662,4886 7645,4889 7627,4893 7632,4880 7634,4869 7636,4860 7608,4889 7573,4902 7536,4902 7501,4902 7471,4889 7447,4862 7421,4836 7406,4808 7406,4773 7406,4735 7423,4703 7451,4679 7479,4652 7514,4639 7553,4639 7582,4639 7605,4646 7629,4661 L 7627,4626 C 7627,4609 7621,4593 7612,4582 7603,4569 7592,4565 7579,4565 7558,4565 7538,4569 7519,4578 7499,4589 7484,4602 7471,4617 7464,4602 7456,4587 7443,4574 7490,4543 7540,4525 7597,4525 7621,4525 7642,4532 7664,4539 7684,4547 7701,4558 7714,4574 7727,4587 7734,4604 7734,4626 L 7723,4838 C 7723,4843 7725,4847 7729,4851 7734,4854 7736,4856 7742,4856 7753,4856 7766,4854 7777,4851 Z M 7777,4851 L 7777,4851 Z M 7636,4827 L 7629,4698 C 7614,4683 7595,4674 7573,4674 7549,4674 7532,4681 7521,4694 7510,4707 7506,4727 7506,4753 7506,4784 7512,4810 7523,4832 7534,4851 7549,4862 7573,4862 7599,4862 7619,4851 7636,4827 Z M 7636,4827 L 7636,4827 Z M 8290,4580 C 8279,4574 8268,4571 8255,4571 8251,4571 8247,4574 8242,4578 8240,4585 8238,4591 8238,4598 L 8223,4829 C 8223,4836 8223,4843 8227,4847 8231,4854 8236,4856 8242,4856 8257,4856 8270,4854 8281,4847 L 8275,4893 C 8268,4893 8260,4895 8253,4895 8244,4895 8231,4893 8214,4891 8199,4886 8186,4886 8179,4886 8170,4886 8157,4886 8140,4891 8125,4893 8112,4895 8105,4895 8097,4895 8088,4893 8081,4893 L 8075,4847 C 8088,4854 8101,4856 8114,4856 8120,4856 8125,4854 8129,4847 8134,4843 8136,4836 8134,4829 L 8127,4714 8025,4714 C 8003,4714 7988,4722 7975,4740 L 7971,4829 C 7968,4836 7971,4843 7975,4847 7979,4854 7984,4856 7990,4856 8003,4856 8016,4854 8029,4847 L 8023,4893 C 8016,4893 8007,4895 7999,4895 7992,4895 7979,4893 7962,4891 7947,4886 7934,4886 7925,4886 7918,4886 7905,4886 7888,4891 7873,4893 7860,4895 7851,4895 7845,4895 7836,4893 7827,4893 L 7823,4847 C 7834,4854 7847,4856 7862,4856 7868,4856 7873,4854 7877,4847 7881,4843 7881,4836 7881,4829 L 7866,4598 C 7866,4591 7864,4585 7862,4578 7858,4574 7853,4571 7849,4571 7836,4571 7825,4574 7814,4580 L 7818,4536 C 7825,4536 7834,4534 7840,4534 7849,4534 7864,4536 7884,4539 7901,4543 7916,4543 7925,4543 7936,4543 7949,4543 7968,4539 7988,4536 8001,4534 8012,4534 8018,4534 8025,4536 8031,4536 L 8038,4580 C 8027,4574 8016,4571 8003,4571 7997,4571 7994,4574 7990,4578 7988,4585 7986,4591 7986,4598 L 7979,4676 8125,4676 8118,4598 C 8118,4591 8116,4585 8114,4578 8110,4574 8105,4571 8101,4571 8088,4571 8077,4574 8066,4580 L 8071,4536 C 8079,4536 8086,4534 8092,4534 8101,4534 8116,4536 8136,4539 8153,4543 8168,4543 8179,4543 8188,4543 8203,4543 8220,4539 8240,4536 8255,4534 8264,4534 8270,4534 8279,4536 8286,4536 L 8290,4580 Z"/>
       </g>
      </g>
     </g>
    </g>
   </g>
  </g>
 </g>
</svg>