<?xml version="1.0" encoding="iso-8859-1"?>
<!-- Generator: Adobe Illustrator 19.0.0, SVG Export Plug-In . SVG Version: 6.00 Build 0)  -->
<svg version="1.1" id="Layer_1" xmlns="http://www.w3.org/2000/svg" xmlns:xlink="http://www.w3.org/1999/xlink" x="0px" y="0px"
	 viewBox="0 0 512.001 512.001" style="enable-background:new 0 0 512.001 512.001;" xml:space="preserve">
<g>
	<g>
		<path d="M470.818,15.933H265.216c-22.708,0-41.184,18.475-41.184,41.183v14.55l-8.981-8.981
			c-15.231-15.23-40.022-15.231-55.266-0.002L11.422,211.043c-15.23,15.246-15.229,40.038,0,55.268l218.334,218.334
			c7.616,7.616,17.623,11.422,27.631,11.424c10.008,0.001,20.013-3.807,27.636-11.42l81.795-81.795h104.001
			c22.707,0,41.183-18.474,41.183-41.183V57.116C512.001,34.407,493.527,15.933,470.818,15.933z M272.335,471.957
			c-8.244,8.235-21.654,8.237-29.89,0L24.113,253.623c-8.238-8.238-8.237-21.647,0.002-29.894L172.471,75.372
			c8.244-8.235,21.653-8.237,29.891,0l21.669,21.67v97.17c-19.162,2.801-33.925,19.338-33.925,39.265v7.89h-7.89
			c-10.61,0-20.578,4.132-28.066,11.636c-7.49,7.476-11.622,17.443-11.622,28.052c0,21.89,17.805,39.701,39.689,39.701h41.814
			v40.916c0,22.708,18.474,41.183,41.184,41.183h76.224L272.335,471.957z M224.03,212.533v90.277h-41.814
			c-11.989,0-21.744-9.759-21.744-21.756c0-5.81,2.261-11.267,6.366-15.364c4.112-4.118,9.567-6.38,15.377-6.38h16.862
			c4.957,0.001,8.973-4.016,8.973-8.971v-16.862C208.05,223.486,214.833,215.068,224.03,212.533z M494.055,361.671
			c0,12.814-10.425,23.238-23.238,23.238H265.216c-12.814,0-23.239-10.425-23.239-23.238V57.116
			c0-12.814,10.426-23.238,23.239-23.238h205.602c12.814,0,23.238,10.425,23.238,23.238V361.671z"/>
	</g>
</g>
<g>
	<g>
		<path d="M420.455,205.2l-44.507-84.202c-1.554-2.94-4.607-4.779-7.933-4.779s-6.379,1.84-7.933,4.779L315.575,205.2
			c-1.386,2.623-1.386,5.763,0,8.386l44.507,84.202c1.554,2.941,4.607,4.779,7.933,4.779s6.379-1.84,7.933-4.779l44.507-84.202
			C421.842,210.963,421.842,207.824,420.455,205.2z M368.016,274.394l-34.359-65.001l34.359-65.001l34.359,65.001L368.016,274.394z"
			/>
	</g>
</g>
<g>
	<g>
		<path d="M313.004,89.873l-21.608-40.878c-1.554-2.94-4.607-4.779-7.933-4.779s-6.379,1.84-7.933,4.779l-21.608,40.878
			c-1.387,2.623-1.387,5.763,0,8.386l21.608,40.878c1.554,2.94,4.607,4.779,7.933,4.779c3.326,0,6.379-1.84,7.933-4.779
			l21.608-40.878C314.391,95.635,314.391,92.496,313.004,89.873z M283.464,115.743l-11.459-21.677l11.458-21.678l11.458,21.678
			L283.464,115.743z"/>
	</g>
</g>
<g>
	<g>
		<path d="M482.11,320.529l-21.609-40.878c-1.554-2.94-4.608-4.779-7.933-4.779c-3.326,0-6.379,1.84-7.933,4.779l-21.608,40.878
			c-1.386,2.624-1.386,5.763,0,8.386l21.608,40.878c1.554,2.941,4.607,4.779,7.933,4.779c3.324,0,6.379-1.84,7.933-4.779
			l21.609-40.878C483.497,326.291,483.497,323.152,482.11,320.529z M452.567,346.4l-11.458-21.679l11.458-21.678l11.459,21.678
			L452.567,346.4z"/>
	</g>
</g>
<g>
	<g>
		<path d="M92.352,193.099c-14.068,0-25.512,11.445-25.512,25.512v0.108h-0.108c-14.067,0-25.512,11.444-25.512,25.512
			c0,14.067,11.444,25.512,25.512,25.512h42.16c4.956,0,8.972-4.017,8.972-8.972v-42.16
			C117.864,204.545,106.421,193.099,92.352,193.099z M99.92,251.8H66.733c-4.174,0-7.569-3.395-7.569-7.568s3.395-7.568,7.568-7.568
			h9.08c4.956,0,8.972-4.017,8.972-8.972v-9.08c0-4.173,3.395-7.568,7.568-7.568c4.173,0,7.568,3.395,7.568,7.568V251.8z"/>
	</g>
</g>
<g>
</g>
<g>
</g>
<g>
</g>
<g>
</g>
<g>
</g>
<g>
</g>
<g>
</g>
<g>
</g>
<g>
</g>
<g>
</g>
<g>
</g>
<g>
</g>
<g>
</g>
<g>
</g>
<g>
</g>
</svg>
