<?xml version="1.0" encoding="iso-8859-1"?>
<!-- Generator: Adobe Illustrator 19.0.0, SVG Export Plug-In . SVG Version: 6.00 Build 0)  -->
<svg version="1.1" id="Layer_1" xmlns="http://www.w3.org/2000/svg" xmlns:xlink="http://www.w3.org/1999/xlink" x="0px" y="0px"
	 viewBox="0 0 512 512" style="enable-background:new 0 0 512 512;" xml:space="preserve">
<g>
	<g>
		<path d="M445.604,208.665c-14.725-17.19-36.151-27.049-58.784-27.049h-6.353l14.151-29.857c6.563-13.847,9.333-28.957,8.014-43.69
			l-0.054-0.591c-1.178-12.271-5.358-24.591-12.092-35.628L351.53,7.983c-3.33-5.46-9.492-8.527-15.856-7.903
			c-6.364,0.629-11.807,4.845-14.005,10.85l-62.483,170.685h-6.37L190.333,10.93c-2.199-6.005-7.641-10.222-14.005-10.85
			c-6.363-0.624-12.526,2.443-15.856,7.903L121.515,71.85c-6.734,11.039-10.915,23.36-12.093,35.641l-0.042,0.45
			c-0.001,0.016-0.01,0.105-0.011,0.12c-1.319,14.742,1.451,29.854,8.014,43.7l14.151,29.856h-6.353
			c-22.633,0-44.06,9.859-58.784,27.049c-5.984,6.986-5.172,17.502,1.815,23.486c6.987,5.982,17.502,5.173,23.486-1.816
			c8.387-9.791,20.591-15.406,33.482-15.406h4.265l-9.539,250.966c-0.463,12.175,3.937,23.714,12.387,32.493
			c8.451,8.777,19.815,13.612,31.999,13.612h183.414c12.185,0,23.548-4.835,31.999-13.612c8.451-8.777,12.849-20.317,12.387-32.493
			l-9.539-250.966h4.265c12.891,0,25.096,5.616,33.483,15.406c3.295,3.847,7.961,5.821,12.657,5.821
			c3.834,0,7.689-1.317,10.828-4.005C450.775,226.167,451.588,215.651,445.604,208.665z M349.216,214.93l7.136,187.744H155.649
			l7.136-187.744H349.216z M142.553,111.004l0.032-0.345c0.697-7.28,3.246-14.701,7.37-21.462l20.969-34.378l46.416,126.797h-48.939
			l-20.914-44.124C143.467,129.01,141.76,119.861,142.553,111.004z M355.707,475.284c-2.112,2.194-4.954,3.402-8,3.402H164.295
			c-3.046,0-5.888-1.208-8-3.402c-2.112-2.194-3.213-5.079-3.097-8.123l1.185-31.172h203.236l1.185,31.172
			C358.919,470.205,357.819,473.09,355.707,475.284z M364.515,137.491l-20.913,44.124h-48.939l46.415-126.794l20.969,34.378
			c4.123,6.758,6.672,14.181,7.369,21.45l0.036,0.384C370.241,119.859,368.535,129.01,364.515,137.491z"/>
	</g>
</g>
<g>
</g>
<g>
</g>
<g>
</g>
<g>
</g>
<g>
</g>
<g>
</g>
<g>
</g>
<g>
</g>
<g>
</g>
<g>
</g>
<g>
</g>
<g>
</g>
<g>
</g>
<g>
</g>
<g>
</g>
</svg>
