<?xml version="1.0" encoding="iso-8859-1"?>
<!-- Generator: Adobe Illustrator 18.1.1, SVG Export Plug-In . SVG Version: 6.00 Build 0)  -->
<svg version="1.1" id="Capa_1" xmlns="http://www.w3.org/2000/svg" xmlns:xlink="http://www.w3.org/1999/xlink" x="0px" y="0px"
	 viewBox="0 0 22.673 22.673" style="enable-background:new 0 0 22.673 22.673;" xml:space="preserve">
<g>
	<g>
		<path style="fill:#010002;" d="M14.177,1.478c-4.683,0-8.494,3.006-8.494,8.335c0,1.377,0.259,2.684,0.716,3.87L2.057,7.668
			L1.194,8.29l9.313,12.904l0.862-0.622l-2.05-2.84c1.378,1.098,3.052,1.748,4.858,1.748c4.683,0,8.496-4.338,8.496-9.666
			S18.862,1.478,14.177,1.478z M9.372,9.814l3.324-2.472l-1.33,2.494c0,0,2.308,0.48,4.931,0.581
			c-0.829,0.298-1.454,1.024-1.608,1.913h-0.819c-0.202-1.167-1.216-2.056-2.439-2.056c-1.224,0-2.237,0.891-2.438,2.056H7.178
			c-0.22-0.794-0.339-1.639-0.339-2.516L9.372,9.814L9.372,9.814z M17.128,10.974c0.984,0,1.781,0.797,1.781,1.779
			s-0.798,1.782-1.781,1.782c-0.982,0-1.779-0.8-1.779-1.782C15.349,11.771,16.145,10.974,17.128,10.974z M13.213,12.753
			c0,0.982-0.798,1.782-1.781,1.782s-1.781-0.8-1.781-1.782c0-0.983,0.798-1.779,1.781-1.779
			C12.414,10.974,13.213,11.771,13.213,12.753z M14.177,18.167c-3.001,0-5.581-2.052-6.718-4.991h1.535
			c0.201,1.168,1.215,2.058,2.438,2.058s2.238-0.891,2.439-2.058h0.819c0.203,1.168,1.215,2.058,2.438,2.058
			c1.224,0,2.238-0.891,2.439-2.058h1.33C19.761,16.115,17.18,18.167,14.177,18.167z M19.567,12.331L19.567,12.331
			c-0.153-0.881-0.767-1.604-1.587-1.905c1.275-0.046,2.528-0.217,3.538-0.611c0,0.877-0.12,1.722-0.34,2.517L19.567,12.331
			L19.567,12.331z M11.385,11.867c-0.475,0-0.861,0.386-0.861,0.861c0,0.474,0.386,0.86,0.861,0.86c0.474,0,0.86-0.386,0.86-0.86
			C12.245,12.251,11.859,11.867,11.385,11.867z M11.561,13.274c-0.244,0-0.442-0.198-0.442-0.44c0-0.244,0.198-0.443,0.442-0.443
			c0.243,0,0.441,0.198,0.441,0.443C12.003,13.076,11.805,13.274,11.561,13.274z M16.99,13.585c0.474,0,0.861-0.386,0.861-0.86
			c0-0.475-0.386-0.861-0.861-0.861c-0.476,0-0.861,0.386-0.861,0.861C16.129,13.201,16.515,13.585,16.99,13.585z M16.814,12.391
			c0.244,0,0.442,0.198,0.442,0.443c0,0.242-0.198,0.44-0.442,0.44c-0.244,0-0.44-0.198-0.44-0.44
			C16.372,12.588,16.569,12.391,16.814,12.391z M14.926,16.575c0,0.32-0.334,0.579-0.749,0.579c-0.413,0-0.747-0.259-0.747-0.579
			c0-0.32,0.334-0.579,0.747-0.579C14.591,15.995,14.926,16.254,14.926,16.575z M1.797,7.259l-0.863,0.62L0,6.581L0.862,5.96
			L1.797,7.259z"/>
	</g>
</g>
<g>
</g>
<g>
</g>
<g>
</g>
<g>
</g>
<g>
</g>
<g>
</g>
<g>
</g>
<g>
</g>
<g>
</g>
<g>
</g>
<g>
</g>
<g>
</g>
<g>
</g>
<g>
</g>
<g>
</g>
</svg>
