<?xml version="1.0" encoding="iso-8859-1"?>
<!-- Generator: Adobe Illustrator 19.0.0, SVG Export Plug-In . SVG Version: 6.00 Build 0)  -->
<svg version="1.1" id="Capa_1" xmlns="http://www.w3.org/2000/svg" xmlns:xlink="http://www.w3.org/1999/xlink" x="0px" y="0px"
	 viewBox="0 0 376.15 376.15" style="enable-background:new 0 0 376.15 376.15;" xml:space="preserve">
<g id="XMLID_517_">
	<path id="XMLID_518_" d="M375.852,203.087c-0.768-2.261-2.88-3.78-5.257-3.78h-15.818l-4.943-16.043
		c-0.725-2.35-2.856-3.929-5.304-3.929s-4.579,1.579-5.305,3.931l-4.942,16.041h-15.818c-2.377,0-4.489,1.519-5.257,3.78
		c-0.772,2.277-0.014,4.786,1.89,6.245l13.022,9.978l-5.003,16.242c-0.523,1.696-0.21,3.557,0.84,4.979
		c1.046,1.417,2.715,2.263,4.466,2.263c1.206,0,2.402-0.407,3.364-1.146l12.743-9.764l12.741,9.763
		c0.965,0.739,2.16,1.146,3.367,1.146c1.75,0,3.42-0.846,4.465-2.263c1.05-1.422,1.363-3.283,0.841-4.976l-5.004-16.244
		l13.024-9.979C375.865,207.873,376.624,205.364,375.852,203.087z"/>
	<path id="XMLID_519_" d="M44.362,100.669c0.965,0.739,2.16,1.146,3.367,1.146c1.75,0,3.42-0.846,4.465-2.263
		c1.05-1.422,1.363-3.283,0.841-4.976l-5.004-16.244l13.024-9.979c1.901-1.458,2.66-3.967,1.888-6.244
		c-0.768-2.261-2.88-3.78-5.257-3.78H41.868l-4.943-16.044c-0.726-2.35-2.856-3.928-5.304-3.928s-4.578,1.579-5.305,3.931
		L21.374,58.33H5.556c-2.377,0-4.489,1.519-5.257,3.78c-0.772,2.277-0.014,4.786,1.89,6.245l13.022,9.978l-5.003,16.242
		c-0.523,1.696-0.21,3.557,0.84,4.979c1.046,1.417,2.715,2.263,4.466,2.263c1.206,0,2.402-0.407,3.364-1.146l12.743-9.764
		L44.362,100.669z"/>
	<path id="XMLID_520_" d="M332.519,262.011c-12.279-4.967-28.901-9.234-48.486-12.484c9.73-44.865,20.117-90.714,31.617-139.566
		c2.81-11.938-2.373-24.142-12.896-30.367C268.838,59.527,230.057,48.92,190.602,48.92c-39.588,0-78.483,10.674-112.482,30.869
		c-10.207,6.064-15.452,17.965-13.051,29.614c7.725,37.464,17.725,86.388,28.296,140.702c-48.338,8.375-72.829,21.835-72.829,40.063
		c0,37.595,106.801,47.625,169.907,47.625s169.907-10.031,169.907-47.625C360.351,278.955,350.987,269.481,332.519,262.011z
		 M264.195,246.612l-1.134,5.272c-0.833,3.856-1.662,7.708-2.486,11.552c-0.909,4.245-4.715,7.326-9.049,7.326H125.37
		c-0.277,0-0.551-0.012-0.822-0.037c-0.333-0.03-0.658-0.083-0.981-0.147c-0.574-0.115-1.129-0.284-1.662-0.501
		c-2.836-1.153-5.013-3.673-5.621-6.828l-0.543-2.807c-0.578-2.993-1.155-5.975-1.73-8.938l-0.864-4.464l-0.003,0
		c-2.098-10.783-4.173-21.352-6.213-31.665H271.04c-2.318,10.481-4.595,20.884-6.839,31.238L264.195,246.612z M88.334,96.984
		c30.91-18.36,66.273-28.064,102.269-28.064c35.873,0,71.133,9.643,101.968,27.887c2.956,1.748,4.407,5.193,3.611,8.571
		c-7.305,31.035-14.162,60.861-20.689,89.997H102.956c-6.79-34.002-13.066-64.635-18.299-90.01
		C83.977,102.063,85.455,98.695,88.334,96.984z M297.666,307.85c-29.051,6.413-67.13,9.944-107.223,9.944
		s-78.172-3.531-107.223-9.944c-31.912-7.043-41.548-15.112-42.638-17.68c1.225-2.831,13.587-12.975,56.714-20.442
		c0.01,0.035,0.024,0.067,0.034,0.102c0.436,1.467,0.981,2.882,1.627,4.237c0.024,0.052,0.047,0.104,0.071,0.155
		c0.311,0.642,0.647,1.268,1.002,1.882c0.045,0.078,0.088,0.156,0.134,0.234c0.35,0.594,0.723,1.172,1.112,1.737
		c0.06,0.086,0.118,0.173,0.179,0.259c0.391,0.554,0.801,1.094,1.228,1.618c0.068,0.083,0.137,0.166,0.206,0.249
		c0.434,0.521,0.884,1.027,1.352,1.516c0.068,0.072,0.138,0.141,0.208,0.212c0.481,0.492,0.977,0.97,1.491,1.427
		c0.057,0.051,0.115,0.099,0.173,0.149c0.537,0.47,1.087,0.923,1.656,1.353c0.026,0.02,0.052,0.037,0.078,0.057
		c0.579,0.434,1.174,0.846,1.784,1.237c0.029,0.018,0.057,0.038,0.086,0.057c0.601,0.382,1.219,0.738,1.848,1.076
		c0.069,0.037,0.136,0.076,0.205,0.112c0.609,0.321,1.232,0.618,1.865,0.896c0.093,0.041,0.186,0.083,0.279,0.123
		c0.625,0.267,1.26,0.511,1.904,0.734c0.105,0.037,0.21,0.073,0.315,0.108c0.645,0.216,1.299,0.409,1.962,0.58
		c0.106,0.027,0.213,0.053,0.319,0.079c0.673,0.165,1.353,0.31,2.041,0.427c0.094,0.016,0.188,0.029,0.281,0.044
		c0.709,0.114,1.424,0.206,2.146,0.268c0.063,0.005,0.126,0.008,0.189,0.013c0.76,0.06,1.525,0.095,2.297,0.095h126.156
		c0.798,0,1.59-0.036,2.376-0.101c0.036-0.003,0.073-0.004,0.11-0.007c0.758-0.065,1.509-0.165,2.252-0.288
		c0.061-0.01,0.123-0.018,0.184-0.029c0.724-0.125,1.438-0.281,2.145-0.459c0.077-0.019,0.155-0.037,0.231-0.057
		c0.691-0.181,1.373-0.389,2.046-0.619c0.087-0.03,0.175-0.058,0.261-0.088c0.662-0.233,1.312-0.491,1.953-0.77
		c0.091-0.04,0.182-0.078,0.272-0.119c0.633-0.283,1.254-0.589,1.864-0.915c0.091-0.048,0.181-0.097,0.271-0.146
		c0.605-0.332,1.197-0.684,1.777-1.057c0.086-0.055,0.171-0.111,0.256-0.167c0.577-0.379,1.141-0.778,1.689-1.196
		c0.079-0.06,0.156-0.12,0.233-0.181c0.548-0.427,1.082-0.871,1.599-1.335c0.068-0.061,0.135-0.124,0.203-0.186
		c0.519-0.474,1.022-0.966,1.507-1.476c0.055-0.058,0.108-0.118,0.163-0.177c0.489-0.524,0.961-1.063,1.411-1.622
		c0.041-0.05,0.079-0.102,0.119-0.152c0.458-0.575,0.896-1.167,1.311-1.777c0.023-0.034,0.044-0.069,0.067-0.103
		c0.425-0.632,0.829-1.28,1.205-1.946c0.005-0.009,0.01-0.019,0.015-0.028c0.387-0.687,0.747-1.391,1.079-2.111
		c0.001-0.001,0.001-0.002,0.001-0.002c0.325-0.707,0.62-1.43,0.889-2.167c0.012-0.033,0.025-0.065,0.037-0.098
		c0.258-0.714,0.485-1.443,0.688-2.183c0.011-0.039,0.026-0.076,0.036-0.115c46.122,7.485,59.253,18.122,60.525,21.083
		C339.215,292.736,329.58,300.806,297.666,307.85z"/>
</g>
<g>
</g>
<g>
</g>
<g>
</g>
<g>
</g>
<g>
</g>
<g>
</g>
<g>
</g>
<g>
</g>
<g>
</g>
<g>
</g>
<g>
</g>
<g>
</g>
<g>
</g>
<g>
</g>
<g>
</g>
</svg>
