<?xml version="1.0" encoding="iso-8859-1"?>
<!-- Generator: Adobe Illustrator 19.0.0, SVG Export Plug-In . SVG Version: 6.00 Build 0)  -->
<svg version="1.1" id="Layer_1" xmlns="http://www.w3.org/2000/svg" xmlns:xlink="http://www.w3.org/1999/xlink" x="0px" y="0px"
	 viewBox="0 0 511.999 511.999" style="enable-background:new 0 0 511.999 511.999;" xml:space="preserve">
<g>
	<g>
		<path d="M361.289,11.069c-4.678,0-8.468,3.792-8.468,8.468v60.972c0,4.677,3.792,8.468,8.468,8.468
			c4.678,0,8.468-3.792,8.468-8.468V19.537C369.758,14.86,365.967,11.069,361.289,11.069z"/>
	</g>
</g>
<g>
	<g>
		<path d="M361.289,173.661c-4.678,0-8.468,3.792-8.468,8.468v60.972c0,4.677,3.79,8.468,8.468,8.468s8.468-3.792,8.468-8.468
			v-60.972C369.758,177.453,365.967,173.661,361.289,173.661z"/>
	</g>
</g>
<g>
	<g>
		<path d="M310.479,122.851h-60.972c-4.678,0-8.468,3.792-8.468,8.468c0,4.677,3.79,8.468,8.468,8.468h60.972
			c4.678,0,8.468-3.792,8.468-8.468C318.947,126.643,315.157,122.851,310.479,122.851z"/>
	</g>
</g>
<g>
	<g>
		<path d="M473.071,122.851h-60.972c-4.677,0-8.468,3.792-8.468,8.468c0,4.677,3.79,8.468,8.468,8.468h60.972
			c4.678,0,8.468-3.792,8.468-8.468C481.54,126.643,477.749,122.851,473.071,122.851z"/>
	</g>
</g>
<g>
	<g>
		<path d="M423.735,68.876c-3.308-3.307-8.669-3.308-11.977,0L391.23,89.403c-3.307,3.307-3.307,8.668,0,11.975
			c1.653,1.654,3.82,2.481,5.988,2.481c2.167,0,4.335-0.826,5.989-2.481l20.527-20.527
			C427.042,77.544,427.042,72.183,423.735,68.876z"/>
	</g>
</g>
<g>
	<g>
		<path d="M423.734,181.787l-20.527-20.527c-3.308-3.307-8.669-3.307-11.977,0c-3.307,3.307-3.307,8.669,0,11.975l20.527,20.527
			c1.654,1.654,3.822,2.481,5.989,2.481s4.335-0.826,5.989-2.481C427.042,190.456,427.042,185.093,423.734,181.787z"/>
	</g>
</g>
<g>
	<g>
		<path d="M331.35,89.403l-20.527-20.527c-3.307-3.307-8.668-3.308-11.977,0c-3.307,3.307-3.307,8.668,0,11.975l20.526,20.527
			c1.654,1.654,3.821,2.481,5.989,2.481c2.167,0,4.335-0.826,5.989-2.481C334.657,98.071,334.657,92.71,331.35,89.403z"/>
	</g>
</g>
<g>
	<g>
		<path d="M252.692,30.524c-0.996-3.066-3.646-5.3-6.837-5.763l-19.058-2.77l-8.523-17.27C216.85,1.83,213.907,0,210.683,0
			c-3.223,0-6.167,1.83-7.594,4.721l-8.524,17.27l-19.058,2.77c-3.19,0.463-5.841,2.697-6.837,5.763
			c-0.996,3.066-0.165,6.431,2.142,8.681l13.792,13.443l-3.255,18.983c-0.545,3.176,0.761,6.387,3.368,8.282
			c1.476,1.073,3.222,1.618,4.978,1.618c1.347,0,2.701-0.322,3.939-0.972l17.047-8.963l17.046,8.963
			c2.852,1.499,6.309,1.25,8.918-0.645c2.608-1.895,3.915-5.106,3.368-8.282l-3.255-18.983l13.791-13.443
			C252.858,36.955,253.688,33.59,252.692,30.524z M221.749,43.626c-1.996,1.945-2.906,4.749-2.434,7.495l1.107,6.457l-5.799-3.049
			c-2.467-1.296-5.413-1.296-7.881,0l-5.8,3.05l1.107-6.459c0.472-2.747-0.439-5.55-2.434-7.495l-4.691-4.574l6.486-0.941
			c2.758-0.401,5.143-2.133,6.376-4.633l2.9-5.876l2.898,5.875c1.234,2.5,3.618,4.232,6.376,4.633l6.483,0.942L221.749,43.626z"/>
	</g>
</g>
<g>
	<g>
		<path d="M156.252,167.846c-0.996-3.066-3.646-5.3-6.837-5.763l-23.57-3.426l-10.541-21.359c-1.427-2.891-4.371-4.721-7.594-4.721
			c-3.224,0-6.167,1.83-7.594,4.721l-10.54,21.358l-23.57,3.426c-3.19,0.463-5.841,2.697-6.837,5.763
			c-0.996,3.066-0.165,6.43,2.142,8.681l17.06,16.625l-4.025,23.475c-0.545,3.177,0.761,6.389,3.368,8.283
			c1.476,1.072,3.222,1.617,4.978,1.617c1.347,0,2.701-0.322,3.94-0.972l21.082-11.083l21.083,11.083
			c2.854,1.501,6.311,1.25,8.918-0.645c2.608-1.895,3.915-5.105,3.368-8.282l-4.025-23.475l17.055-16.625
			C156.418,174.276,157.248,170.912,156.252,167.846z M122.042,184.132c-1.996,1.945-2.906,4.749-2.434,7.496l1.878,10.951
			l-9.836-5.171c-1.234-0.648-2.587-0.972-3.941-0.972c-1.354,0-2.706,0.324-3.941,0.972l-9.835,5.171l1.878-10.951
			c0.472-2.747-0.439-5.551-2.434-7.496l-7.957-7.756l10.998-1.6c2.758-0.401,5.143-2.133,6.376-4.633l4.916-9.963l4.917,9.964
			c1.234,2.499,3.618,4.232,6.376,4.633l10.995,1.599L122.042,184.132z"/>
	</g>
</g>
<g>
	<g>
		<path d="M489.358,278.714c-76.831-8.964-154.902-13.504-232.374-13.545c25.329-27.026,49.7-55.047,72.729-83.725l32.687-40.71
			c2.705-3.369,2.439-8.235-0.615-11.29c-3.057-3.055-7.922-3.322-11.29-0.615l-40.71,32.688
			c-40.545,32.555-79.817,67.759-116.75,104.64c-56.689,1.769-113.994,5.981-170.391,12.558c-4.645,0.542-7.973,4.747-7.43,9.392
			c0.502,4.312,4.162,7.488,8.399,7.488c0.327,0,0.659-0.019,0.992-0.058c33.051-3.855,66.42-6.868,99.79-9.074
			c3.311,13.205,6,26.531,7.993,39.688c0.029,0.186,0.053,0.373,0.081,0.559L61.81,397.369c-4.281,4.28-6.638,9.971-6.638,16.024
			s2.358,11.744,6.637,16.024h0.001c4.279,4.28,9.97,6.637,16.023,6.637c6.053,0,11.743-2.358,16.023-6.637l43.058-43.058
			c-0.029,34.456-4.529,69.169-13.465,103.462c-0.592,2.275-0.212,4.694,1.048,6.678c1.26,1.984,3.289,3.355,5.6,3.784
			c42.028,7.81,84.352,11.716,126.675,11.716c42.323,0,84.647-3.906,126.674-11.716c2.311-0.429,4.34-1.8,5.6-3.784
			c1.26-1.984,1.639-4.401,1.048-6.676c-14.15-54.323-17.156-109.398-8.935-163.694c1.987-13.118,4.67-26.411,7.968-39.577
			c32.885,2.194,65.688,5.183,98.266,8.983c0.333,0.04,0.664,0.058,0.992,0.058c4.238,0,7.897-3.176,8.399-7.487
			C497.33,283.461,494.003,279.256,489.358,278.714z M175.462,283.717l-28.259,28.259c-1.589-8.846-3.472-17.73-5.623-26.573
			C152.883,284.755,164.182,284.173,175.462,283.717z M81.88,417.442c-1.081,1.082-2.518,1.677-4.047,1.677
			s-2.967-0.595-4.048-1.677c-1.082-1.082-1.677-2.519-1.677-4.048c0-1.529,0.595-2.966,1.677-4.048l130.497-130.497
			c30.153-30.154,61.897-59.178,94.625-86.53c-27.356,32.732-56.377,64.472-86.531,94.627L81.88,417.442z M142.055,485.219
			c9.15-38.324,12.995-77.106,11.476-115.476l43.733-43.733c55.106-4.929,110.891-2.955,165.999,5.868
			c-6.676,50.929-3.925,102.425,8.228,153.34C295.322,498.342,218.227,498.342,142.055,485.219z M365.795,315.132
			c-49.828-7.968-100.199-10.488-150.161-7.492l8.72-8.72c5.53-5.53,11.009-11.129,16.46-16.761
			c43.588-0.335,87.409,0.781,131.132,3.322C369.55,295.344,367.492,305.266,365.795,315.132z"/>
	</g>
</g>
<g>
</g>
<g>
</g>
<g>
</g>
<g>
</g>
<g>
</g>
<g>
</g>
<g>
</g>
<g>
</g>
<g>
</g>
<g>
</g>
<g>
</g>
<g>
</g>
<g>
</g>
<g>
</g>
<g>
</g>
</svg>
