<?xml version="1.0" encoding="iso-8859-1"?>
<!-- Generator: Adobe Illustrator 19.0.0, SVG Export Plug-In . SVG Version: 6.00 Build 0)  -->
<svg version="1.1" id="Layer_1" xmlns="http://www.w3.org/2000/svg" xmlns:xlink="http://www.w3.org/1999/xlink" x="0px" y="0px"
	 viewBox="0 0 512.001 512.001" style="enable-background:new 0 0 512.001 512.001;" xml:space="preserve">
<g>
	<g>
		<path d="M362.097,354.117c-2.525-2.398-6.284-2.96-9.401-1.402l-2.668,1.334c-11.974,5.987-26.23,4.947-37.207-2.712
			c-5.822-4.062-12.278-6.925-19.035-8.517v-48.983c0-10.493,8.536-19.029,19.029-19.029s19.03,8.537,19.03,19.029
			c0,4.57,3.705,8.274,8.274,8.274s8.274-3.705,8.274-8.274c0-19.618-15.961-35.577-35.578-35.577
			c-19.618,0-35.577,15.961-35.577,35.577v47.656c-1.326,0.092-2.653,0.216-3.979,0.404c-6.777,0.959-12.778,4.253-17.256,9.006
			c-4.478-4.753-10.479-8.047-17.256-9.006c-1.327-0.188-2.654-0.312-3.982-0.404v-47.656c0-19.618-15.959-35.577-35.577-35.577
			c-19.618,0-35.578,15.961-35.578,35.577c0,4.57,3.705,8.274,8.274,8.274c4.57,0,8.274-3.705,8.274-8.274
			c0-10.493,8.537-19.029,19.03-19.029s19.029,8.537,19.029,19.029v48.983c-6.757,1.592-13.212,4.455-19.034,8.517
			c-10.978,7.66-25.234,8.698-37.207,2.712l-2.668-1.334c-3.116-1.558-6.873-0.997-9.4,1.402s-3.278,6.124-1.882,9.316l8.327,19.033
			c6.576,15.033,19.394,26.253,35.165,30.783c5.012,1.44,10.13,2.149,15.216,2.149c10.914,0,21.68-3.266,30.925-9.575l13.453-9.182
			c1.797-1.227,3.426-2.638,4.891-4.183c1.465,1.547,3.093,2.958,4.891,4.183l13.453,9.182c9.245,6.311,20.009,9.575,30.925,9.575
			c5.085,0,10.204-0.709,15.216-2.149c15.771-4.53,28.587-15.75,35.165-30.783l8.327-19.033
			C365.376,360.241,364.624,356.517,362.097,354.117z M241.782,382.973l-13.453,9.182c-9.47,6.464-21.224,8.356-32.242,5.19
			c-11.02-3.165-19.976-11.006-24.572-21.511l-0.843-1.927c13.136,1.91,26.741-1.156,37.98-8.997
			c8.112-5.66,17.973-8.014,27.776-6.627c6.442,0.911,11.301,6.687,11.301,13.432C247.728,376.223,245.506,380.432,241.782,382.973z
			 M340.489,375.833c-4.596,10.504-13.552,18.345-24.573,21.511c-11.019,3.166-22.772,1.274-32.242-5.19l-13.453-9.182
			c-3.723-2.541-5.945-6.75-5.945-11.258c0-6.746,4.858-12.521,11.3-13.432c1.837-0.26,3.675-0.388,5.504-0.388
			c7.93,0,15.68,2.416,22.272,7.016c11.239,7.841,24.842,10.908,37.979,8.997L340.489,375.833z"/>
	</g>
</g>
<g>
	<g>
		<path d="M475.276,203.861c-0.53-4.54-4.635-7.788-9.178-7.26c-24.505,2.859-49.071,5.203-73.677,7.056
			c-17.012-60.592-16.565-121.974,1.359-182.525c0.674-2.278,0.338-4.735-0.926-6.747c-1.263-2.012-3.33-3.384-5.674-3.768
			c-86.581-14.157-174.382-14.157-260.962,0c-2.344,0.383-4.411,1.755-5.674,3.768c-1.263,2.011-1.6,4.469-0.926,6.747
			c17.934,60.586,18.371,122.003,1.329,182.63c-25.062-1.869-50.086-4.25-75.046-7.161c-4.54-0.527-8.647,2.721-9.178,7.26
			c-0.528,4.539,2.721,8.648,7.26,9.177c24.667,2.877,49.397,5.238,74.165,7.107v34.1c-17.48,7.77-29.23,25.421-29.23,44.9
			c0,19.701,11.989,37.498,29.776,45.142c3.615,40.785,25.23,78.087,59.376,101.525c0.275,0.201,0.556,0.393,0.835,0.577
			l0.199,0.134c11.587,7.802,24.134,13.72,37.392,17.664c1.105,8.709,5.026,16.764,11.335,23.073l22.317,22.318
			c1.615,1.616,3.733,2.424,5.851,2.424c2.117,0,4.235-0.808,5.85-2.424l22.317-22.318c6.468-6.468,10.233-14.627,11.314-23.067
			c13.252-3.942,25.81-9.865,37.443-17.69l0.177-0.119c0.259-0.174,0.523-0.354,0.788-0.544
			c34.172-23.436,55.8-60.753,59.416-101.555c17.784-7.645,29.769-25.441,29.769-45.139c0-19.477-11.748-37.125-29.224-44.896
			v-34.103c24.768-1.868,49.496-4.23,74.163-7.107C472.555,212.51,475.805,208.4,475.276,203.861z M118.152,324.881
			c-7.786-6.053-12.682-15.497-12.682-25.735c0-10.228,4.898-19.677,12.682-25.732V324.881z M377.302,275.804
			c-2.815-5.911-5.935-13.971-9.179-24.997c-3.182-10.814-5.539-21.336-6.996-28.479c5.394-0.31,10.785-0.645,16.175-1.003V275.804z
			 M375.354,25.508c-12.292,45.822-15.069,92.057-8.357,138.065c-73.232,10.322-147.357,10.323-220.592,0.001
			c6.712-46.01,3.935-92.244-8.357-138.067C216.837,13.563,296.565,13.563,375.354,25.508z M143.625,179.897
			c37.537,5.312,75.304,7.971,113.071,7.971c37.771,0,75.541-2.659,113.081-7.972c1.625,8.331,3.563,16.652,5.813,24.96
			c-79.148,5.222-158.652,5.255-237.803,0.094C140.047,196.61,141.994,188.258,143.625,179.897z M134.701,221.323
			c5.39,0.359,10.782,0.694,16.175,1.004c-1.456,7.145-3.814,17.665-6.995,28.479c-3.245,11.027-6.365,19.088-9.18,24.998V221.323z
			 M272.468,475.559l-16.466,16.466l-16.466-16.466c-9.079-9.08-9.079-23.853,0-32.933c4.399-4.399,10.246-6.82,16.466-6.82
			c6.22,0,12.067,2.423,16.466,6.82C281.548,451.707,281.548,466.479,272.468,475.559z M377.302,332.093
			c0.001,40.054-19.757,77.495-52.852,100.155c-0.071,0.049-0.14,0.098-0.208,0.148c-0.127,0.093-0.254,0.177-0.378,0.259
			l-0.206,0.139c-9.247,6.22-19.173,11.08-29.617,14.515c-1.847-5.998-5.132-11.646-9.871-16.384
			c-7.524-7.524-17.527-11.668-28.168-11.668c-10.641,0-20.644,4.144-28.168,11.668c-4.655,4.655-8.012,10.26-9.898,16.377
			c-10.441-3.436-20.352-8.288-29.556-14.486l-0.495-0.33c-0.108-0.083-0.218-0.162-0.331-0.239
			c-33.096-22.659-52.854-60.1-52.854-100.153v-28.417c9.503-7.415,17.752-23.324,25.1-48.35c3.73-12.705,6.337-24.768,7.783-32.124
			c29.449,1.421,58.933,2.144,88.418,2.144s58.969-0.721,88.418-2.144c1.446,7.356,4.053,19.418,7.783,32.123
			c7.348,25.027,15.598,40.935,25.1,48.351V332.093z M406.527,299.146c0,10.235-4.893,19.676-12.675,25.73v-51.457
			C401.632,279.474,406.527,288.921,406.527,299.146z"/>
	</g>
</g>
<g>
	<g>
		<path d="M198.637,291.763c-4.57,0-8.274,3.705-8.274,8.274v15.894c0,4.57,3.705,8.274,8.274,8.274s8.274-3.705,8.274-8.274
			v-15.894C206.911,295.468,203.206,291.763,198.637,291.763z"/>
	</g>
</g>
<g>
	<g>
		<path d="M313.368,291.763c-4.57,0-8.274,3.705-8.274,8.274v15.894c0,4.57,3.705,8.274,8.274,8.274c4.57,0,8.274-3.705,8.274-8.274
			v-15.894C321.643,295.468,317.938,291.763,313.368,291.763z"/>
	</g>
</g>
<g>
</g>
<g>
</g>
<g>
</g>
<g>
</g>
<g>
</g>
<g>
</g>
<g>
</g>
<g>
</g>
<g>
</g>
<g>
</g>
<g>
</g>
<g>
</g>
<g>
</g>
<g>
</g>
<g>
</g>
</svg>
