<?xml version="1.0" encoding="iso-8859-1"?>
<!-- Generator: Adobe Illustrator 19.0.0, SVG Export Plug-In . SVG Version: 6.00 Build 0)  -->
<svg version="1.1" id="Layer_1" xmlns="http://www.w3.org/2000/svg" xmlns:xlink="http://www.w3.org/1999/xlink" x="0px" y="0px"
	 viewBox="0 0 512.002 512.002" style="enable-background:new 0 0 512.002 512.002;" xml:space="preserve">
<g>
	<g>
		<path d="M466.259,300.729c-40.654-4.742-81.476-8.091-122.365-10.069c-42.59-33.661-26.485-69.484-22.136-77.397l0.108-0.108
			c26.83-26.828,28.776-69.239,5.88-98.354l26.835-14.866C379.464,86.137,398,62.474,405.436,35.014l6.685-24.661
			c0.769-2.838-0.038-5.87-2.118-7.95c-2.08-2.08-5.111-2.886-7.95-2.118l-24.66,6.685c-27.466,7.441-51.13,25.982-64.923,50.869
			l-17.477,31.545c-12.07-5.569-25.302-8.519-38.992-8.519c-13.688,0-26.918,2.949-38.988,8.516l-17.487-31.542
			c-13.794-24.889-37.453-43.429-64.911-50.868l-24.661-6.685c-2.836-0.768-5.869,0.038-7.949,2.117
			c-2.079,2.078-2.887,5.109-2.12,7.948l6.677,24.661c7.438,27.465,25.978,51.128,50.869,64.924l26.826,14.865
			c-22.896,29.114-20.949,71.525,5.88,98.353l0.061,0.061c1.825,3.378,6.047,12.356,6.603,24.007
			c0.939,19.702-8.71,37.669-28.685,53.435c-40.893,1.978-81.717,5.328-122.373,10.07c-4.502,0.525-7.725,4.601-7.2,9.102
			c0.525,4.501,4.592,7.72,9.102,7.2c29.257-3.413,58.602-6.094,87.997-8.062c15.095,60.525,14.774,121.848-0.984,182.339
			c-0.574,2.205-0.206,4.547,1.015,6.471c1.222,1.922,3.188,3.251,5.427,3.666c37.891,7.039,76.049,10.559,114.207,10.559
			s76.316-3.52,114.207-10.559c2.239-0.416,4.205-1.744,5.427-3.666c1.221-1.922,1.59-4.266,1.015-6.471
			c-15.765-60.521-16.078-121.877-0.96-182.433c29.851,1.976,59.651,4.692,89.362,8.157c0.323,0.037,0.643,0.056,0.961,0.056
			c4.106,0,7.653-3.078,8.14-7.255C473.983,305.33,470.761,301.254,466.259,300.729z M326.826,65.797
			c11.655-21.029,31.651-36.696,54.862-42.984l10.85-2.941l-2.942,10.852c-6.285,23.205-21.948,43.201-42.971,54.858l-30.791,17.057
			c-2.137-1.798-4.345-3.484-6.613-5.07L326.826,65.797z M165.386,85.585c-21.031-11.659-36.697-31.653-42.982-54.859l-2.939-10.855
			l10.859,2.943c23.201,6.286,43.193,21.952,54.848,42.984l17.613,31.771c-2.269,1.586-4.479,3.275-6.617,5.073L165.386,85.585z
			 M201.743,119.753c14.494-14.494,33.763-22.475,54.26-22.475c20.496,0,39.766,7.981,54.259,22.475
			c22.552,22.552,22.552,59.247,0,81.798l-31.612,31.612c-4.142,4.142-9.148,6.903-14.442,8.297v-15.361l11.705-11.223
			c5.218-5.003,6.847-12.571,4.151-19.278c-2.696-6.707-9.109-11.042-16.339-11.042h-15.444c-7.229,0-13.642,4.334-16.339,11.042
			c-2.697,6.708-1.067,14.275,4.151,19.278l11.704,11.223v15.361c-5.294-1.394-10.3-4.154-14.442-8.297l-31.612-31.612
			C179.19,178.999,179.19,142.304,201.743,119.753z M256.001,211.229l-8.55-8.2c-0.175-0.167-0.584-0.561-0.282-1.312
			c0.302-0.752,0.869-0.752,1.112-0.752h15.444c0.242,0,0.81,0,1.112,0.752c0.302,0.752-0.108,1.144-0.282,1.312L256.001,211.229z
			 M213.195,236.443c-0.004-0.083-0.012-0.163-0.016-0.246l8.57,8.57c9.443,9.443,21.848,14.165,34.252,14.165
			c12.405,0,24.809-4.721,34.253-14.165l8.57-8.57c-0.004,0.083-0.012,0.163-0.016,0.246c-1.057,22.186,8.359,39.889,20.107,53.178
			c-41.915-1.451-83.883-1.451-125.798-0.001C210.422,270.05,213.87,250.583,213.195,236.443z M152.681,486.839
			c10.792-45.527,13.229-91.466,7.328-137.181c63.275-10.06,127.314-10.06,190.597,0.001c-5.899,45.714-3.464,91.653,7.328,137.18
			C289.79,498.506,220.826,498.506,152.681,486.839z M353.052,333.432c-64.909-10.306-130.59-10.306-195.49-0.001
			c-1.469-8.514-3.225-17.018-5.275-25.507c68.607-3.955,137.448-3.977,206.057-0.074
			C356.288,316.365,354.526,324.893,353.052,333.432z"/>
	</g>
</g>
<g>
	<g>
		<circle cx="286.645" cy="171.787" r="8.206"/>
	</g>
</g>
<g>
	<g>
		<circle cx="225.353" cy="171.787" r="8.206"/>
	</g>
</g>
<g>
</g>
<g>
</g>
<g>
</g>
<g>
</g>
<g>
</g>
<g>
</g>
<g>
</g>
<g>
</g>
<g>
</g>
<g>
</g>
<g>
</g>
<g>
</g>
<g>
</g>
<g>
</g>
<g>
</g>
</svg>
